<?xml version="1.0" encoding="UTF-8"?>
<svg clip-rule="evenodd" fill-rule="evenodd" stroke-linecap="round" stroke-linejoin="round" stroke-miterlimit="1.5" version="1.1" viewBox="0 0 3587 3587" xmlns="http://www.w3.org/2000/svg">
 <circle cx="1793.4" cy="1793.4" r="1793.4" fill="#3573b9"/>
 <path d="m27.504 2107.5c314.22-294.86 771.77-723.94 772.56-725.3 1.194-2.068 2.672-3.994 4.36-5.682 3.404-3.404 7.646-5.852 12.296-7.098 2.306-0.618 4.734-0.624 7.1-0.936h340.22l401.79-301.54c1.946-1.116 3.77-2.48 5.84-3.35 5.588-2.348 7.288-1.85 13.21-2.018 2.192 0.484 4.382 0.968 6.574 1.452 2.008 1.002 4.154 1.768 6.022 3.01 1.87 1.242 3.598 2.726 5.108 4.386 3.044 3.346 5.214 7.392 6.316 11.778 0.546 2.176 0.55 4.454 0.826 6.682v624.73c204-203.83 341.53-341.16 342.06-341.47 5.596-3.222 7.482-2.844 13.72-3.658 2.366 0.316 4.732 0.63 7.098 0.944 6.474 2.692-16.951 14.118-11.589 18.244 46.207-46.295 229.99-227.14 229.99-227.14l29.091 23.899s205.5-195.97 205.68-196.15c1.686-1.688 3.61-3.168 5.676-4.364 5.59-3.234 7.476-2.86 13.714-3.686 2.366 0.31 4.732 0.618 7.1 0.928 2.206 0.912 4.55 1.544 6.618 2.734 2.068 1.192 3.796 2.896 5.684 4.356 0.064 0.048 0.116 0.114 0.172 0.17 0.164 0.166 0.328 0.33 0.492 0.494 0.42 0.424 0.838 0.85 1.256 1.278 0.864 0.882 1.724 1.768 2.582 2.66 4.576 4.754 9.07 9.59 13.514 14.468 7.842 8.608 15.522 17.36 23.076 26.22 8.086 9.486 16.024 19.094 23.828 28.81 11.76 14.646 23.214 29.534 34.374 44.64 14.716 19.92 28.92 40.218 42.602 60.862 28.744 43.37 55.194 88.276 79.022 134.53 40.532 78.68 73.494 161.39 96.386 246.93 3.142 11.74 6.092 23.532 8.846 35.37 12.028 51.698 20.278 104.29 24.278 157.22 1.72 22.76 2.658 45.578 2.79 68.402 0.168 29.202-0.984 58.412-3.472 87.508-3.03 35.436-8.046 70.698-15 105.58-6.836 34.29-15.546 68.204-26.012 101.56-9.282 29.582-19.938 58.73-31.86 87.35-9.174 22.026-19.094 43.744-29.702 65.118-19.648 39.584-41.638 77.992-65.584 115.13-19.64 30.46-40.592 60.072-62.646 88.832-25.814 33.666-53.142 66.164-81.686 97.544-11.73 12.896-23.672 25.596-35.792 38.126l-1.148 1.182c-1.32 1.046-607.45 607.12-965.09 964.44-748.02-123.31-1340.5-710.18-1472.3-1455.2z" fill="url(#a)"/>
 <path d="m1164 1368.5l401.79-301.54c1.946-1.116 3.77-2.48 5.84-3.35 5.588-2.348 7.288-1.85 13.21-2.018 2.192 0.484 4.382 0.968 6.574 1.452 2.008 1.002 4.154 1.768 6.022 3.01 1.87 1.242 3.598 2.726 5.108 4.386 3.044 3.346 5.214 7.392 6.316 11.778 0.546 2.176 0.55 4.454 0.826 6.682v1409c-0.728 5.88-0.392 7.62-3.256 12.962-1.06 1.978-2.376 3.838-3.886 5.498-3.044 3.346-6.866 5.886-11.13 7.396-2.116 0.75-4.34 1.242-6.574 1.454-2.234 0.21-4.512 0.146-6.73-0.194-5.992-0.916-7.182-2.228-12.32-5.176l-401.79-301.54h-340.22c-2.366-0.312-4.794-0.318-7.1-0.934-2.306-0.618-4.548-1.548-6.616-2.742-4.17-2.406-7.632-5.87-10.04-10.04-1.194-2.066-2.122-4.31-2.74-6.616-0.618-2.304-0.624-4.732-0.934-7.098v-794.97c0.31-2.368 0.316-4.794 0.934-7.1s1.546-4.55 2.74-6.616c1.194-2.068 2.672-3.994 4.36-5.682 3.404-3.404 7.646-5.852 12.296-7.098 2.306-0.618 4.734-0.624 7.1-0.936h340.22z" fill="#fff"/>
 <path d="m1965.5 1395.9s392.89 389.99 0 794.97" fill="none" stroke="#fff" stroke-width="54.86px"/>
 <path d="m2211.8 1184.4s601.93 597.48 0 1217.9" fill="none" stroke="#fff" stroke-width="59.78px"/>
 <path d="m2445.2 1007.6s776.66 770.92 0 1571.5" fill="none" stroke="#fff" stroke-width="54.86px"/>
 <defs>
  <linearGradient id="a" x2="1" gradientTransform="matrix(-2225.1 2225.1 -2225.1 -2225.1 2445.2 980.2)" gradientUnits="userSpaceOnUse">
   <stop stop-opacity=".40392" offset="0"/>
   <stop stop-color="#4d4d4d" stop-opacity="0" offset="1"/>
  </linearGradient>
 </defs>
</svg>
