<?xml version="1.0" encoding="UTF-8" standalone="no"?>
<svg
   xmlns:dc="http://purl.org/dc/elements/1.1/"
   xmlns:cc="http://creativecommons.org/ns#"
   xmlns:rdf="http://www.w3.org/1999/02/22-rdf-syntax-ns#"
   xmlns:svg="http://www.w3.org/2000/svg"
   xmlns="http://www.w3.org/2000/svg"
   xmlns:sodipodi="http://sodipodi.sourceforge.net/DTD/sodipodi-0.dtd"
   xmlns:inkscape="http://www.inkscape.org/namespaces/inkscape"
   width="800mm"
   height="120mm"
   viewBox="0 0 799.99998 34.285714"
   version="1.1"
   id="svg856"
   inkscape:version="1.0.2-2 (e86c870879, 2021-01-15)"
   sodipodi:docname="Real-world.svg">
  <defs
     id="defs850">
    <symbol
       id="b">
      <path
         d="m -329.25,1375.8 c 6.991,-10.991 6.2892,-25.332 5.4781,-37.867 -5.5373,-20.756 -20.475,-37.801 -24.789,-59.058 -4.8528,-13.307 -11.648,-26.405 -10.947,-41.013 0.23999,-16.472 -0.75253,-33.05 0.54721,-49.457 4.0561,-16.96 17.993,-29.664 33.833,-35.897 15.863,-8.8695 34.69,-9.928 50.426,-19.145 13.312,-4.9492 27.833,-0.942 41.669,-2.0204 13.8,-0.1761 27.966,-0.8267 40.931,4.8174 15.151,2.6765 27.597,12.516 36.749,24.485 7.8611,9.0665 15.369,19.338 13.971,32.089 0.40509,12.244 0.76472,25.883 -8.0613,35.583 -8.4685,11.374 -22.285,18.386 -27.378,32.284 -7.2562,19.212 -25.697,20.182 -37.272,36.406 -6.9031,8.0194 -22.589,20.124 -20.806,33.839 1.2775,10.818 3.1162,21.854 -3.046,31.632 -4.5165,9.397 -2.5966,26.066 -16.311,27.159 -21.329,1.4945 -43.446,-0.156 -62.872,-9.7981 -3.8434,-1.916 -8.2785,-2.1248 -12.122,-4.0406 z"
         fill="#ffff55"
         fill-rule="evenodd"
         stroke="#000000"
         stroke-width="1pt"
         id="path858" />
      <path
         d="m -341.38,1378.6 c 4.3419,-8.4014 5.2926,-18.973 6.2196,-28.53 -0.16571,-12.728 -6.4854,-24.338 -10.846,-36.083 -8.3062,-21.352 -16.256,-42.71 -21.174,-65.108 -3.8528,-17.138 -4.8815,-34.796 -3.2283,-52.249 4.3344,-19.111 19.831,-32.786 35.27,-43.707 24.584,-16.626 48.936,-26.3 78.225,-27.115 35.175,-0.3461 71.16,2.4932 103.25,17.832 13.62,7.3578 20.105,20.671 21.643,35.574 -0.82579,19.173 -3.8397,39.054 -13.849,55.664 -9.5267,13.927 -20.612,26.774 -32.999,38.217 -8.8023,7.3242 -17.005,15.224 -25.168,23.239 -7.4854,9.3079 -15.315,18.503 -20.948,29.051 -4.0502,8.816 -3.6419,18.38 -3.6646,27.84 0.44373,9.0319 -0.071,17.857 -1.546,26.745 l -23.653,11.745 c 1.2592,-8.8362 2.376,-17.521 1.7103,-26.515 -0.0156,-9.6822 -0.58997,-19.607 3.2774,-28.711 5.0429,-11.164 13.278,-20.284 20.665,-30.02 8.0062,-8.2542 16.221,-16.239 25.092,-23.58 12.731,-11.064 23.829,-23.986 33.634,-37.704 10.277,-15.798 13.65,-35.322 14.277,-53.944 -1.7227,-14.054 -6.845,-26.453 -20.083,-33.381 -31.647,-15.938 -67.419,-18.473 -102.38,-16.898 -16.565,0.7966 -74.585,20.697 -33.456,2.5834 -15.387,10.24 -30.574,23.153 -35.836,41.49 -2.1488,17.181 -1.1141,34.735 2.3156,51.7 5.4699,22.087 12.044,43.812 21.228,64.699 4.5313,12.041 11.454,23.771 11.754,36.846 -0.90591,10.138 -2.6239,20.19 -5.0072,30.074 l -24.73,10.244 z"
         id="path860" />
      <path
         d="m -322.21,1365.9 c 9.2844,3.4028 18.441,7.63 27.829,10.967 12.563,5.0112 25.923,4.8857 39.116,6.1122 7.4015,1.9735 13.719,0.5867 20.621,-1.4974 l -20.659,16.407 c -7.2032,1.5709 -14.084,1.9284 -21.398,0.2262 -13.354,-0.9523 -26.644,-1.6484 -39.36,-6.429 -9.1912,-3.429 -18.198,-8.4564 -27.823,-10.038 l 21.675,-15.748 z"
         id="path862" />
      <path
         d="m -333.48,1382.1 c 2.7451,8.3029 11.135,12.473 18.679,16.24 12.707,3.2618 25.797,5.3574 38.923,6.033 11.51,0.3213 23.228,-0.7633 34.434,-3.39 2.2183,-0.1758 4.2549,-1.1292 6.4005,-1.6985 l -20.978,16.122 c -2.1679,0.5041 -4.2595,1.3578 -6.5098,1.5137 -11.34,2.1112 -22.9,3.4158 -34.464,2.6517 -13.372,-0.8012 -26.96,-2.7716 -39.738,-6.7354 -8.3193,-4.4993 -17.087,-9.3999 -20.618,-18.573 l 23.872,-12.163 z"
         id="path864" />
      <path
         d="m -330.3,1412.4 c 7.784,3.6222 15.597,7.7073 23.718,10.857 23.56,4.5735 33.618,5.0375 57.679,5.0889 22.474,-10.554 -21.18,21.366 -9.8842,3.7424 l 23.806,-11.46 c -5.2487,13.99 -20.492,21.295 -35.064,23.261 -24.198,-1.3567 -34.12,-1.8744 -57.931,-6.1772 -8.0373,-2.9164 -15.984,-7.3906 -23.998,-9.564 l 21.675,-15.748 z"
         id="path866" />
      <path
         d="m -323.38,1432.6 c 3.327,8.7078 11.481,13.549 18.901,18.675 9.7774,5.9067 20.834,5.7185 31.861,5.7312 9.6668,0.7501 18.599,-0.8118 27.532,-4.1766 -35.251,21.209 -16.888,14.046 -13.85,0.1005 l 23.436,-12.118 c -0.52879,17.479 -13.851,19.772 -30.297,28.402 -9.2488,2.6202 -18.424,4.0398 -28.131,3.2709 -11.437,-0.165 -22.762,-0.5675 -32.671,-7.0503 -8.129,-5.6904 -16.502,-11.29 -20.653,-20.672 l 23.872,-12.163 z"
         id="path868" />
      <path
         d="m -274.89,1468.9 c 0.11191,7.9094 -1.2498,15.687 -1.9622,23.542 l -23.533,11.802 c 0.63504,-7.7368 2.2124,-15.402 1.6239,-23.181 l 23.872,-12.163 z"
         id="path870" />
      <path
         d="m -477.11,1096.4 c 13.764,9.7628 12.385,10.812 27.585,18.435 10.686,5.0255 20.506,11.579 31.11,16.791 6.1851,3.28 1.8132,5.2714 11.543,9.3213 l -14.099,14.164 c -5.5677,-3.9774 -11.085,-8.0697 -17.217,-11.161 -10.582,-5.2646 -20.577,-11.455 -31.125,-16.761 -14.66,-7.8263 -12.79,-10.038 -27.405,-17.096 l 19.608,-13.693 z"
         id="path872" />
      <path
         d="m -332.53,994.39 c 12.15,12.29 35.234,66.62 37.614,73.711 l -17.061,8.5895 c -2.2965,-6.8735 -23.837,-61.532 -37.315,-72.355 l 16.762,-9.9456 z"
         id="path874" />
      <path
         d="m -148.84,1004.2 c -5.0361,20.346 -14.512,53.758 -22.288,73.293 l -17.598,-8.9177 c 8.6834,-18.68 18.449,-51.752 22.076,-71.971 l 17.811,7.5956 z"
         id="path876" />
      <path
         d="m -71.218,1155.5 c 22.865,-13.489 53.42,-17.967 79.503,-25.331 l 2.8374,16.354 c -25.062,6.8988 -51.567,14.028 -75.394,22.926 l -6.9467,-13.949 z"
         id="path878" />
    </symbol>
    <symbol
       id="a">
      <path
         d="m 410.68,194.38 c -18.304,-4.9047 -36.828,0.70825 -49.616,12.902 -6.6812,-8.0308 -15.728,-14.229 -26.579,-17.136 -27.927,-7.4828 -56.696,9.1272 -64.179,37.054 -0.54987,2.0521 -0.69464,4.1156 -0.98953,6.168 -25.149,-2.6143 -49.213,13.13 -55.965,38.326 -6.6896,24.966 5.934,50.494 28.623,60.991 -1.2333,2.6744 -2.3833,5.4297 -3.1711,8.3695 -7.4829,27.927 9.1437,56.634 37.07,64.117 13.679,3.6657 27.502,1.5132 38.977,-4.8763 6.3242,13.529 18.115,24.419 33.659,28.583 22.177,5.9426 44.682,-3.471 56.832,-21.514 4.9215,3.4841 10.392,6.3662 16.554,8.0176 27.927,7.4828 56.634,-9.144 64.117,-37.071 3.7628,-14.043 1.4345,-28.254 -5.358,-39.901 6.7224,-6.4101 11.984,-14.53 14.563,-24.152 7.483,-27.927 -9.1436,-56.635 -37.07,-64.118 -2.9398,-0.78735 -5.8846,-1.2309 -8.8166,-1.5 1.7378,-24.524 -14.024,-47.662 -38.65,-54.261 z"
         fill="#ffffff"
         stroke="#000000"
         stroke-linejoin="round"
         stroke-width="14.79"
         id="path881" />
    </symbol>
    <symbol
       id="b-5">
      <path
         d="m -329.25,1375.8 c 6.991,-10.991 6.2892,-25.332 5.4781,-37.867 -5.5373,-20.756 -20.475,-37.801 -24.789,-59.058 -4.8528,-13.307 -11.648,-26.405 -10.947,-41.013 0.23999,-16.472 -0.75253,-33.05 0.54721,-49.457 4.0561,-16.96 17.993,-29.664 33.833,-35.897 15.863,-8.8695 34.69,-9.928 50.426,-19.145 13.312,-4.9492 27.833,-0.942 41.669,-2.0204 13.8,-0.1761 27.966,-0.8267 40.931,4.8174 15.151,2.6765 27.597,12.516 36.749,24.485 7.8611,9.0665 15.369,19.338 13.971,32.089 0.40509,12.244 0.76472,25.883 -8.0613,35.583 -8.4685,11.374 -22.285,18.386 -27.378,32.284 -7.2562,19.212 -25.697,20.182 -37.272,36.406 -6.9031,8.0194 -22.589,20.124 -20.806,33.839 1.2775,10.818 3.1162,21.854 -3.046,31.632 -4.5165,9.397 -2.5966,26.066 -16.311,27.159 -21.329,1.4945 -43.446,-0.156 -62.872,-9.7981 -3.8434,-1.916 -8.2785,-2.1248 -12.122,-4.0406 z"
         fill="#ffff55"
         fill-rule="evenodd"
         stroke="#000000"
         stroke-width="1pt"
         id="path858-4" />
      <path
         d="m -341.38,1378.6 c 4.3419,-8.4014 5.2926,-18.973 6.2196,-28.53 -0.16571,-12.728 -6.4854,-24.338 -10.846,-36.083 -8.3062,-21.352 -16.256,-42.71 -21.174,-65.108 -3.8528,-17.138 -4.8815,-34.796 -3.2283,-52.249 4.3344,-19.111 19.831,-32.786 35.27,-43.707 24.584,-16.626 48.936,-26.3 78.225,-27.115 35.175,-0.3461 71.16,2.4932 103.25,17.832 13.62,7.3578 20.105,20.671 21.643,35.574 -0.82579,19.173 -3.8397,39.054 -13.849,55.664 -9.5267,13.927 -20.612,26.774 -32.999,38.217 -8.8023,7.3242 -17.005,15.224 -25.168,23.239 -7.4854,9.3079 -15.315,18.503 -20.948,29.051 -4.0502,8.816 -3.6419,18.38 -3.6646,27.84 0.44373,9.0319 -0.071,17.857 -1.546,26.745 l -23.653,11.745 c 1.2592,-8.8362 2.376,-17.521 1.7103,-26.515 -0.0156,-9.6822 -0.58997,-19.607 3.2774,-28.711 5.0429,-11.164 13.278,-20.284 20.665,-30.02 8.0062,-8.2542 16.221,-16.239 25.092,-23.58 12.731,-11.064 23.829,-23.986 33.634,-37.704 10.277,-15.798 13.65,-35.322 14.277,-53.944 -1.7227,-14.054 -6.845,-26.453 -20.083,-33.381 -31.647,-15.938 -67.419,-18.473 -102.38,-16.898 -16.565,0.7966 -74.585,20.697 -33.456,2.5834 -15.387,10.24 -30.574,23.153 -35.836,41.49 -2.1488,17.181 -1.1141,34.735 2.3156,51.7 5.4699,22.087 12.044,43.812 21.228,64.699 4.5313,12.041 11.454,23.771 11.754,36.846 -0.90591,10.138 -2.6239,20.19 -5.0072,30.074 l -24.73,10.244 z"
         id="path860-6" />
      <path
         d="m -322.21,1365.9 c 9.2844,3.4028 18.441,7.63 27.829,10.967 12.563,5.0112 25.923,4.8857 39.116,6.1122 7.4015,1.9735 13.719,0.5867 20.621,-1.4974 l -20.659,16.407 c -7.2032,1.5709 -14.084,1.9284 -21.398,0.2262 -13.354,-0.9523 -26.644,-1.6484 -39.36,-6.429 -9.1912,-3.429 -18.198,-8.4564 -27.823,-10.038 l 21.675,-15.748 z"
         id="path862-0" />
      <path
         d="m -333.48,1382.1 c 2.7451,8.3029 11.135,12.473 18.679,16.24 12.707,3.2618 25.797,5.3574 38.923,6.033 11.51,0.3213 23.228,-0.7633 34.434,-3.39 2.2183,-0.1758 4.2549,-1.1292 6.4005,-1.6985 l -20.978,16.122 c -2.1679,0.5041 -4.2595,1.3578 -6.5098,1.5137 -11.34,2.1112 -22.9,3.4158 -34.464,2.6517 -13.372,-0.8012 -26.96,-2.7716 -39.738,-6.7354 -8.3193,-4.4993 -17.087,-9.3999 -20.618,-18.573 l 23.872,-12.163 z"
         id="path864-0" />
      <path
         d="m -330.3,1412.4 c 7.784,3.6222 15.597,7.7073 23.718,10.857 23.56,4.5735 33.618,5.0375 57.679,5.0889 22.474,-10.554 -21.18,21.366 -9.8842,3.7424 l 23.806,-11.46 c -5.2487,13.99 -20.492,21.295 -35.064,23.261 -24.198,-1.3567 -34.12,-1.8744 -57.931,-6.1772 -8.0373,-2.9164 -15.984,-7.3906 -23.998,-9.564 l 21.675,-15.748 z"
         id="path866-8" />
      <path
         d="m -323.38,1432.6 c 3.327,8.7078 11.481,13.549 18.901,18.675 9.7774,5.9067 20.834,5.7185 31.861,5.7312 9.6668,0.7501 18.599,-0.8118 27.532,-4.1766 -35.251,21.209 -16.888,14.046 -13.85,0.1005 l 23.436,-12.118 c -0.52879,17.479 -13.851,19.772 -30.297,28.402 -9.2488,2.6202 -18.424,4.0398 -28.131,3.2709 -11.437,-0.165 -22.762,-0.5675 -32.671,-7.0503 -8.129,-5.6904 -16.502,-11.29 -20.653,-20.672 l 23.872,-12.163 z"
         id="path868-6" />
      <path
         d="m -274.89,1468.9 c 0.11191,7.9094 -1.2498,15.687 -1.9622,23.542 l -23.533,11.802 c 0.63504,-7.7368 2.2124,-15.402 1.6239,-23.181 l 23.872,-12.163 z"
         id="path870-4" />
      <path
         d="m -477.11,1096.4 c 13.764,9.7628 12.385,10.812 27.585,18.435 10.686,5.0255 20.506,11.579 31.11,16.791 6.1851,3.28 1.8132,5.2714 11.543,9.3213 l -14.099,14.164 c -5.5677,-3.9774 -11.085,-8.0697 -17.217,-11.161 -10.582,-5.2646 -20.577,-11.455 -31.125,-16.761 -14.66,-7.8263 -12.79,-10.038 -27.405,-17.096 l 19.608,-13.693 z"
         id="path872-3" />
      <path
         d="m -332.53,994.39 c 12.15,12.29 35.234,66.62 37.614,73.711 l -17.061,8.5895 c -2.2965,-6.8735 -23.837,-61.532 -37.315,-72.355 l 16.762,-9.9456 z"
         id="path874-3" />
      <path
         d="m -148.84,1004.2 c -5.0361,20.346 -14.512,53.758 -22.288,73.293 l -17.598,-8.9177 c 8.6834,-18.68 18.449,-51.752 22.076,-71.971 l 17.811,7.5956 z"
         id="path876-9" />
      <path
         d="m -71.218,1155.5 c 22.865,-13.489 53.42,-17.967 79.503,-25.331 l 2.8374,16.354 c -25.062,6.8988 -51.567,14.028 -75.394,22.926 l -6.9467,-13.949 z"
         id="path878-1" />
    </symbol>
    <symbol
       id="a-3">
      <path
         d="m 410.68,194.38 c -18.304,-4.9047 -36.828,0.70825 -49.616,12.902 -6.6812,-8.0308 -15.728,-14.229 -26.579,-17.136 -27.927,-7.4828 -56.696,9.1272 -64.179,37.054 -0.54987,2.0521 -0.69464,4.1156 -0.98953,6.168 -25.149,-2.6143 -49.213,13.13 -55.965,38.326 -6.6896,24.966 5.934,50.494 28.623,60.991 -1.2333,2.6744 -2.3833,5.4297 -3.1711,8.3695 -7.4829,27.927 9.1437,56.634 37.07,64.117 13.679,3.6657 27.502,1.5132 38.977,-4.8763 6.3242,13.529 18.115,24.419 33.659,28.583 22.177,5.9426 44.682,-3.471 56.832,-21.514 4.9215,3.4841 10.392,6.3662 16.554,8.0176 27.927,7.4828 56.634,-9.144 64.117,-37.071 3.7628,-14.043 1.4345,-28.254 -5.358,-39.901 6.7224,-6.4101 11.984,-14.53 14.563,-24.152 7.483,-27.927 -9.1436,-56.635 -37.07,-64.118 -2.9398,-0.78735 -5.8846,-1.2309 -8.8166,-1.5 1.7378,-24.524 -14.024,-47.662 -38.65,-54.261 z"
         fill="#ffffff"
         stroke="#000000"
         stroke-linejoin="round"
         stroke-width="14.79"
         id="path881-7" />
    </symbol>
    <symbol
       id="b-7">
      <path
         d="m -329.25,1375.8 c 6.991,-10.991 6.2892,-25.332 5.4781,-37.867 -5.5373,-20.756 -20.475,-37.801 -24.789,-59.058 -4.8528,-13.307 -11.648,-26.405 -10.947,-41.013 0.23999,-16.472 -0.75253,-33.05 0.54721,-49.457 4.0561,-16.96 17.993,-29.664 33.833,-35.897 15.863,-8.8695 34.69,-9.928 50.426,-19.145 13.312,-4.9492 27.833,-0.942 41.669,-2.0204 13.8,-0.1761 27.966,-0.8267 40.931,4.8174 15.151,2.6765 27.597,12.516 36.749,24.485 7.8611,9.0665 15.369,19.338 13.971,32.089 0.40509,12.244 0.76472,25.883 -8.0613,35.583 -8.4685,11.374 -22.285,18.386 -27.378,32.284 -7.2562,19.212 -25.697,20.182 -37.272,36.406 -6.9031,8.0194 -22.589,20.124 -20.806,33.839 1.2775,10.818 3.1162,21.854 -3.046,31.632 -4.5165,9.397 -2.5966,26.066 -16.311,27.159 -21.329,1.4945 -43.446,-0.156 -62.872,-9.7981 -3.8434,-1.916 -8.2785,-2.1248 -12.122,-4.0406 z"
         fill="#ffff55"
         fill-rule="evenodd"
         stroke="#000000"
         stroke-width="1pt"
         id="path858-6" />
      <path
         d="m -341.38,1378.6 c 4.3419,-8.4014 5.2926,-18.973 6.2196,-28.53 -0.16571,-12.728 -6.4854,-24.338 -10.846,-36.083 -8.3062,-21.352 -16.256,-42.71 -21.174,-65.108 -3.8528,-17.138 -4.8815,-34.796 -3.2283,-52.249 4.3344,-19.111 19.831,-32.786 35.27,-43.707 24.584,-16.626 48.936,-26.3 78.225,-27.115 35.175,-0.3461 71.16,2.4932 103.25,17.832 13.62,7.3578 20.105,20.671 21.643,35.574 -0.82579,19.173 -3.8397,39.054 -13.849,55.664 -9.5267,13.927 -20.612,26.774 -32.999,38.217 -8.8023,7.3242 -17.005,15.224 -25.168,23.239 -7.4854,9.3079 -15.315,18.503 -20.948,29.051 -4.0502,8.816 -3.6419,18.38 -3.6646,27.84 0.44373,9.0319 -0.071,17.857 -1.546,26.745 l -23.653,11.745 c 1.2592,-8.8362 2.376,-17.521 1.7103,-26.515 -0.0156,-9.6822 -0.58997,-19.607 3.2774,-28.711 5.0429,-11.164 13.278,-20.284 20.665,-30.02 8.0062,-8.2542 16.221,-16.239 25.092,-23.58 12.731,-11.064 23.829,-23.986 33.634,-37.704 10.277,-15.798 13.65,-35.322 14.277,-53.944 -1.7227,-14.054 -6.845,-26.453 -20.083,-33.381 -31.647,-15.938 -67.419,-18.473 -102.38,-16.898 -16.565,0.7966 -74.585,20.697 -33.456,2.5834 -15.387,10.24 -30.574,23.153 -35.836,41.49 -2.1488,17.181 -1.1141,34.735 2.3156,51.7 5.4699,22.087 12.044,43.812 21.228,64.699 4.5313,12.041 11.454,23.771 11.754,36.846 -0.90591,10.138 -2.6239,20.19 -5.0072,30.074 l -24.73,10.244 z"
         id="path860-64" />
      <path
         d="m -322.21,1365.9 c 9.2844,3.4028 18.441,7.63 27.829,10.967 12.563,5.0112 25.923,4.8857 39.116,6.1122 7.4015,1.9735 13.719,0.5867 20.621,-1.4974 l -20.659,16.407 c -7.2032,1.5709 -14.084,1.9284 -21.398,0.2262 -13.354,-0.9523 -26.644,-1.6484 -39.36,-6.429 -9.1912,-3.429 -18.198,-8.4564 -27.823,-10.038 l 21.675,-15.748 z"
         id="path862-2" />
      <path
         d="m -333.48,1382.1 c 2.7451,8.3029 11.135,12.473 18.679,16.24 12.707,3.2618 25.797,5.3574 38.923,6.033 11.51,0.3213 23.228,-0.7633 34.434,-3.39 2.2183,-0.1758 4.2549,-1.1292 6.4005,-1.6985 l -20.978,16.122 c -2.1679,0.5041 -4.2595,1.3578 -6.5098,1.5137 -11.34,2.1112 -22.9,3.4158 -34.464,2.6517 -13.372,-0.8012 -26.96,-2.7716 -39.738,-6.7354 -8.3193,-4.4993 -17.087,-9.3999 -20.618,-18.573 l 23.872,-12.163 z"
         id="path864-4" />
      <path
         d="m -330.3,1412.4 c 7.784,3.6222 15.597,7.7073 23.718,10.857 23.56,4.5735 33.618,5.0375 57.679,5.0889 22.474,-10.554 -21.18,21.366 -9.8842,3.7424 l 23.806,-11.46 c -5.2487,13.99 -20.492,21.295 -35.064,23.261 -24.198,-1.3567 -34.12,-1.8744 -57.931,-6.1772 -8.0373,-2.9164 -15.984,-7.3906 -23.998,-9.564 l 21.675,-15.748 z"
         id="path866-1" />
      <path
         d="m -323.38,1432.6 c 3.327,8.7078 11.481,13.549 18.901,18.675 9.7774,5.9067 20.834,5.7185 31.861,5.7312 9.6668,0.7501 18.599,-0.8118 27.532,-4.1766 -35.251,21.209 -16.888,14.046 -13.85,0.1005 l 23.436,-12.118 c -0.52879,17.479 -13.851,19.772 -30.297,28.402 -9.2488,2.6202 -18.424,4.0398 -28.131,3.2709 -11.437,-0.165 -22.762,-0.5675 -32.671,-7.0503 -8.129,-5.6904 -16.502,-11.29 -20.653,-20.672 l 23.872,-12.163 z"
         id="path868-8" />
      <path
         d="m -274.89,1468.9 c 0.11191,7.9094 -1.2498,15.687 -1.9622,23.542 l -23.533,11.802 c 0.63504,-7.7368 2.2124,-15.402 1.6239,-23.181 l 23.872,-12.163 z"
         id="path870-1" />
      <path
         d="m -477.11,1096.4 c 13.764,9.7628 12.385,10.812 27.585,18.435 10.686,5.0255 20.506,11.579 31.11,16.791 6.1851,3.28 1.8132,5.2714 11.543,9.3213 l -14.099,14.164 c -5.5677,-3.9774 -11.085,-8.0697 -17.217,-11.161 -10.582,-5.2646 -20.577,-11.455 -31.125,-16.761 -14.66,-7.8263 -12.79,-10.038 -27.405,-17.096 l 19.608,-13.693 z"
         id="path872-6" />
      <path
         d="m -332.53,994.39 c 12.15,12.29 35.234,66.62 37.614,73.711 l -17.061,8.5895 c -2.2965,-6.8735 -23.837,-61.532 -37.315,-72.355 l 16.762,-9.9456 z"
         id="path874-1" />
      <path
         d="m -148.84,1004.2 c -5.0361,20.346 -14.512,53.758 -22.288,73.293 l -17.598,-8.9177 c 8.6834,-18.68 18.449,-51.752 22.076,-71.971 l 17.811,7.5956 z"
         id="path876-1" />
      <path
         d="m -71.218,1155.5 c 22.865,-13.489 53.42,-17.967 79.503,-25.331 l 2.8374,16.354 c -25.062,6.8988 -51.567,14.028 -75.394,22.926 l -6.9467,-13.949 z"
         id="path878-5" />
    </symbol>
    <symbol
       id="a-36">
      <path
         d="m 410.68,194.38 c -18.304,-4.9047 -36.828,0.70825 -49.616,12.902 -6.6812,-8.0308 -15.728,-14.229 -26.579,-17.136 -27.927,-7.4828 -56.696,9.1272 -64.179,37.054 -0.54987,2.0521 -0.69464,4.1156 -0.98953,6.168 -25.149,-2.6143 -49.213,13.13 -55.965,38.326 -6.6896,24.966 5.934,50.494 28.623,60.991 -1.2333,2.6744 -2.3833,5.4297 -3.1711,8.3695 -7.4829,27.927 9.1437,56.634 37.07,64.117 13.679,3.6657 27.502,1.5132 38.977,-4.8763 6.3242,13.529 18.115,24.419 33.659,28.583 22.177,5.9426 44.682,-3.471 56.832,-21.514 4.9215,3.4841 10.392,6.3662 16.554,8.0176 27.927,7.4828 56.634,-9.144 64.117,-37.071 3.7628,-14.043 1.4345,-28.254 -5.358,-39.901 6.7224,-6.4101 11.984,-14.53 14.563,-24.152 7.483,-27.927 -9.1436,-56.635 -37.07,-64.118 -2.9398,-0.78735 -5.8846,-1.2309 -8.8166,-1.5 1.7378,-24.524 -14.024,-47.662 -38.65,-54.261 z"
         fill="#ffffff"
         stroke="#000000"
         stroke-linejoin="round"
         stroke-width="14.79"
         id="path881-4" />
    </symbol>
    <linearGradient
       id="a-9"
       x2="505.91"
       gradientUnits="userSpaceOnUse"
       gradientTransform="matrix(0.5205732,0,0,0.64877667,504.66956,-35.169816)">
      <stop
         stop-color="#cce81e"
         offset="0"
         id="stop936" />
      <stop
         stop-color="#7a941d"
         offset=".2735"
         id="stop938" />
      <stop
         stop-color="#335919"
         offset=".5"
         id="stop940" />
      <stop
         stop-color="#cce70b"
         offset="1"
         id="stop942" />
    </linearGradient>
  </defs>
  <sodipodi:namedview
     id="base"
     pagecolor="#ffffff"
     bordercolor="#666666"
     borderopacity="1.0"
     inkscape:pageopacity="0.0"
     inkscape:pageshadow="2"
     inkscape:zoom="0.19"
     inkscape:cx="1511.811"
     inkscape:cy="331.42857"
     inkscape:document-units="mm"
     inkscape:current-layer="layer1"
     inkscape:document-rotation="0"
     showgrid="false"
     showborder="true"
     inkscape:window-width="1366"
     inkscape:window-height="705"
     inkscape:window-x="-8"
     inkscape:window-y="-8"
     inkscape:window-maximized="1"
     viewbox-height="10"
     viewbox-width="10000000" />
  <metadata
     id="metadata853">
    <rdf:RDF>
      <cc:Work
         rdf:about="">
        <dc:format>image/svg+xml</dc:format>
        <dc:type
           rdf:resource="http://purl.org/dc/dcmitype/StillImage" />
        <dc:title />
      </cc:Work>
    </rdf:RDF>
  </metadata>
  <g
     inkscape:label="Layer 1"
     inkscape:groupmode="layer"
     id="layer1">
    <g
       style="fill:#000000;fill-opacity:1;stroke-linejoin:miter"
       id="g892"
       transform="matrix(0.25942081,0,0,0.26972378,-31.115509,32.139655)">
      <path
         d="m 258.8803,229.09694 c 0.002,0.19946 0.20185,0.2771 0.4001,0.15576 0.23803,-0.12195 0.3955,-0.32263 0.3944,-0.44226 -7.3e-4,-0.0797 -0.16082,-0.15784 -0.40002,-0.15564 -0.19934,0.002 -0.39673,0.203 -0.39448,0.44214 z"
         id="path890" />
    </g>
    <g
       style="fill:#000000;fill-opacity:1;stroke-linejoin:miter"
       id="g896"
       transform="matrix(0.25942081,0,0,0.26972378,-31.115509,32.139655)">
      <path
         d="m 431.77585,235.48564 c 0.12152,0.19836 0.40082,0.23548 0.59905,0.11402 0.51466,-0.36341 0.4339,-0.48243 -0.2437,-0.47608 -0.31885,0.003 -0.4767,0.16406 -0.35535,0.36206 z"
         id="path894-6" />
    </g>
    <g
       style="fill:#000000;fill-opacity:1;stroke-linejoin:miter"
       id="g900"
       transform="matrix(0.25942081,0,0,0.26972378,-31.115509,32.139655)">
      <path
         d="m 385.5609,242.2177 c 0.12153,0.19812 0.32264,0.3955 0.4422,0.3944 0.0797,-7.3e-4 0.1576,-0.2008 0.1557,-0.40002 -0.002,-0.23926 -0.203,-0.39685 -0.4422,-0.39453 -0.19927,0.002 -0.2775,0.16199 -0.1557,0.40015 z"
         id="path898-0" />
    </g>
    <g
       style="fill:#000000;fill-opacity:1;stroke-linejoin:miter"
       id="g904"
       transform="matrix(0.25942081,0,0,0.26972378,-31.115509,32.139655)">
      <path
         d="m 436.98367,242.49236 c -0.11767,0.20019 -0.0752,0.47888 0.12519,0.59643 0.20044,0.11792 0.35834,-0.0431 0.35534,-0.36194 -0.006,-0.67761 -0.12665,-0.75622 -0.48053,-0.23449 z"
         id="path902-7" />
    </g>
    <path
       d="m 760.58386,37.806528 c 3.09795,-0.881688 6.35777,-1.0043 7.23076,-0.279611 0.85739,0.70911 -0.91985,1.9619 -3.922,2.798154 -2.97351,0.826546 -6.11256,0.960202 -7.0621,0.295841 -0.96671,-0.678607 0.69082,-1.939832 3.75334,-2.814384 z m -19.43198,7.231276 c 1.07347,0.602689 4.17659,0.458679 6.97988,-0.321816 2.83399,-0.789542 4.36083,-1.948906 3.36915,-2.594462 -1.01201,-0.657839 -4.23539,-0.522239 -7.14904,0.31014 -2.88449,0.820684 -4.29315,1.988481 -3.19999,2.606138 z m -14.79778,4.167092 c 1.18432,0.54625 4.25152,0.391841 6.90175,-0.344512 2.67574,-0.745435 3.9803,-1.820466 2.86784,-2.408914 -1.13328,-0.592328 -4.31555,-0.445694 -7.06368,0.335417 -2.7179,0.775955 -3.90741,1.856807 -2.70591,2.418009 z m -13.98209,3.938707 c 1.27644,0.496323 4.30931,0.333487 6.81639,-0.365261 2.53154,-0.707172 3.63309,-1.704973 2.41859,-2.237629 -1.23637,-0.539777 -4.3827,-0.379533 -6.97621,0.358788 -2.57111,0.732455 -3.55862,1.734808 -2.25877,2.244102 z m -13.23922,3.729183 c 1.36029,0.447656 4.35669,0.27701 6.73363,-0.384093 2.39932,-0.668874 3.31916,-1.598577 2.01202,-2.081267 -1.3306,-0.487226 -4.43581,-0.321782 -6.89084,0.378229 -2.42951,0.692244 -3.24005,1.625852 -1.85481,2.087131 z m -12.54892,3.534538 c 1.43262,0.406764 4.39308,0.229013 6.64719,-0.399669 2.27542,-0.635125 3.03284,-1.498647 1.6471,-1.935295 -1.41441,-0.445042 -4.4785,-0.269897 -6.80547,0.391867 -2.30143,0.655267 -2.94955,1.523325 -1.48882,1.943097 z m -11.91698,3.352857 c 1.50134,0.370458 4.42073,0.185616 6.56547,-0.408079 2.16195,-0.604656 2.76736,-1.410424 1.31133,-1.809426 -1.48258,-0.399656 -4.50816,-0.21995 -6.7133,0.410011 -2.18538,0.620889 -2.68618,1.431865 -1.1635,1.807494 z m -11.32349,3.19004 c 1.55651,0.336724 4.43737,0.14737 6.47747,-0.420402 2.05991,-0.57418 2.52741,-1.328049 1.0094,-1.688122 -1.54403,-0.363301 -4.52898,-0.175819 -6.62586,0.421698 -2.07657,0.591685 -2.442,1.344912 -0.86101,1.686826 z m -10.77901,3.035607 c 1.60597,0.303651 4.4509,0.112312 6.39475,-0.43141 1.96097,-0.546926 2.30508,-1.250851 0.73397,-1.575894 -1.60022,-0.327618 -4.5446,-0.136344 -6.54046,0.431452 -1.97245,0.563765 -2.22026,1.26964 -0.58826,1.575852 z m -10.27246,2.893576 c 1.64657,0.271837 4.45715,0.076 6.30933,-0.441837 1.87149,-0.519671 2.10468,-1.178164 0.48363,-1.471423 -1.645,-0.29908 -4.55137,-0.09857 -6.45095,0.43988 -1.88186,0.538478 -2.01617,1.197643 -0.34201,1.47338 z M 751.32285,36.754217 c 1.0625,0.743496 4.40198,0.617626 7.51345,-0.277663 3.14634,-0.907664 4.95899,-2.28112 4.00006,-3.080421 -0.98177,-0.813549 -4.45714,-0.698075 -7.70654,0.260828 -3.20986,0.948507 -4.89079,2.338175 -3.80697,3.097256 z m -16.38609,4.782789 c 1.19525,0.670809 4.49363,0.532641 7.41923,-0.310781 2.95946,-0.853141 4.49981,-2.121502 3.39154,-2.842924 -1.13381,-0.733125 -4.5644,-0.604681 -7.6113,0.293882 -3.01359,0.891421 -4.42071,2.168213 -3.19947,2.859823 z m -15.41362,4.498613 c 1.31288,0.607898 4.57009,0.453486 7.32706,-0.338016 2.78453,-0.804496 4.08078,-1.978133 2.84439,-2.631438 -1.26133,-0.661766 -4.64974,-0.520331 -7.51341,0.326321 -2.83089,0.834979 -3.99644,2.020307 -2.65804,2.643133 z m -14.52295,4.235214 c 1.41333,0.55145 4.63049,0.38927 7.23073,-0.360083 2.62631,-0.760364 3.70388,-1.847711 2.35664,-2.436797 -1.37533,-0.59948 -4.71794,-0.445069 -7.4119,0.35229 -2.66795,0.786302 -3.61695,1.88145 -2.17547,2.44459 z m -13.7093,4.00036 c 1.50341,0.496292 4.67785,0.325016 7.13497,-0.384094 2.48313,-0.714286 3.36447,-1.721847 1.91884,-2.257079 -1.47637,-0.541073 -4.77212,-0.376301 -7.31459,0.373028 -2.51592,0.743522 -3.2723,1.758189 -1.73922,2.268145 z m -12.96021,3.782365 c 1.581,0.447649 4.70966,0.267939 7.03868,-0.399006 2.34778,-0.681209 3.05211,-1.616106 1.52268,-2.098796 -1.5612,-0.489162 -4.81219,-0.314013 -7.2115,0.394464 -2.37852,0.701316 -2.96101,1.642056 -1.34986,2.103338 z m -12.27355,3.579275 c 1.64866,0.407448 4.73512,0.220686 6.94131,-0.417145 2.22962,-0.640993 2.77207,-1.513609 1.16869,-1.950887 -1.6346,-0.439208 -4.83819,-0.2582 -7.11101,0.413275 -2.25045,0.663701 -2.67629,1.538248 -0.99899,1.954757 z m -11.63586,3.396364 c 1.70384,0.3672 4.75024,0.175813 6.84555,-0.429508 2.11249,-0.609834 2.51018,-1.421463 0.84437,-1.815264 -1.69759,-0.399632 -4.85748,-0.210872 -7.01056,0.426251 -2.13279,0.628659 -2.4144,1.444157 -0.67936,1.818521 z m -11.05174,3.225069 c 1.75638,0.330876 4.75905,0.132896 6.74976,-0.443763 2.01043,-0.578073 2.27799,-1.332601 0.55647,-1.689429 -1.75381,-0.359419 -4.86786,-0.165506 -6.91217,0.437295 -2.02295,0.599461 -2.17913,1.356558 -0.39406,1.695897 z m -10.50413,3.064175 c 1.79647,0.29518 4.75804,0.09538 6.65291,-0.450242 1.91413,-0.552773 2.06146,-1.255396 0.29309,-1.574597 -1.80274,-0.32634 -4.87203,-0.125792 -6.81326,0.446371 -1.92141,0.56961 -1.96414,1.274836 -0.1328,1.578468 z M 745.1421,32.415848 c 1.19628,0.837582 4.75855,0.719487 8.02255,-0.256929 3.30459,-0.988084 5.1521,-2.509475 4.06724,-3.411272 -1.10779,-0.9167 -4.82623,-0.818745 -8.24432,0.233442 -3.37278,1.039996 -5.06622,2.575653 -3.84547,3.434634 z m -17.1555,5.203829 c 1.33997,0.754526 4.858,0.621526 7.91428,-0.292606 3.09482,-0.925801 4.64091,-2.32716 3.39674,-3.136832 -1.27488,-0.828488 -4.94439,-0.70912 -8.13656,0.273798 -3.15207,0.967981 -4.54614,2.383605 -3.17446,3.15564 z m -16.07893,4.88011 c 1.46646,0.67861 4.93555,0.530703 7.80808,-0.326985 2.90479,-0.869359 4.17813,-2.161082 2.79704,-2.891603 -1.41599,-0.741551 -5.03449,-0.60792 -8.02153,0.310751 -2.95371,0.909596 -4.08285,2.209753 -2.58359,2.907837 z m -15.09923,4.580366 c 1.57576,0.61309 4.99803,0.452183 7.69721,-0.35425 2.73143,-0.81941 3.76737,-2.007312 2.26447,-2.668417 -1.53725,-0.668874 -5.10264,-0.517726 -7.90438,0.341259 -2.76893,0.852484 -3.66325,2.052725 -2.0573,2.681408 z m -14.2054,4.309166 c 1.66845,0.551451 5.04173,0.381469 7.58683,-0.378231 2.57061,-0.770092 3.39569,-1.871735 1.78765,-2.465358 -1.64294,-0.602721 -5.15369,-0.439878 -7.78881,0.367197 -2.60286,0.805135 -3.28951,1.911957 -1.58567,2.476392 z m -13.38917,4.062641 c 1.74914,0.49826 5.07092,0.319847 7.47232,-0.400304 2.42951,-0.727279 3.06255,-1.744546 1.36651,-2.281083 -1.72935,-0.543696 -5.18959,-0.371124 -7.67117,0.391841 -2.45607,0.757786 -2.95113,1.779613 -1.16766,2.289546 z m -12.64419,3.835573 c 1.81733,0.449587 5.09225,0.260138 7.36353,-0.41913 2.29466,-0.685749 2.75902,-1.631652 0.98594,-2.113051 -1.80948,-0.491783 -5.21405,-0.306873 -7.55612,0.413277 -2.3155,0.711689 -2.64556,1.659561 -0.79335,2.118904 z m -11.95496,3.627291 c 1.87771,0.402243 5.10371,0.210891 7.25419,-0.434673 2.17077,-0.65073 2.48157,-1.527223 0.64241,-1.961897 -1.87461,-0.439219 -5.22763,-0.24977 -7.43849,0.432743 -2.19006,0.670826 -2.37277,1.550559 -0.45811,1.963827 z m -11.32611,3.436578 c 1.92926,0.362023 5.10685,0.161583 7.14748,-0.448316 2.05732,-0.615017 2.23013,-1.430539 0.33525,-1.823699 -1.93083,-0.396398 -5.23333,-0.196659 -7.32501,0.447651 -2.07186,0.636463 -2.11925,1.450001 -0.15778,1.824364 z m -10.74098,3.255569 c 1.97195,0.328914 5.10319,0.123819 7.03869,-0.457387 1.95421,-0.585848 2.00419,-1.341042 0.0604,-1.693334 -1.97869,-0.356823 -5.22864,-0.150557 -7.21358,0.456751 -1.96359,0.606617 -1.89123,1.364385 0.11443,1.69397 z M 738.15547,27.51369 c 1.3535,0.951746 5.17506,0.841451 8.61029,-0.226317 3.47535,-1.087346 5.34837,-2.783915 4.11878,-3.805739 -1.26603,-1.045827 -5.26506,-0.965378 -8.86692,0.191506 -3.55187,1.14575 -5.24844,2.868895 -3.86215,3.840752 z m -17.99464,5.701429 c 1.51382,0.850552 5.28227,0.727285 8.4838,-0.271831 3.24056,-1.012093 4.78041,-2.567201 3.37279,-3.486521 -1.44564,-0.932945 -5.38952,-0.829783 -8.73627,0.247827 -3.3046,1.063368 -4.669,2.635993 -3.12032,3.510525 z m -16.79524,5.31999 c 1.64916,0.764261 5.36189,0.622827 8.35623,-0.310116 3.03024,-0.949168 4.27441,-2.371931 2.71373,-3.197814 -1.59762,-0.83952 -5.47902,-0.711077 -8.59984,0.289978 -3.08338,0.994582 -4.15732,2.434221 -2.47012,3.217952 z m -15.71247,4.978704 c 1.7663,0.685107 5.41915,0.530064 8.22713,-0.343849 2.84025,-0.886868 3.82206,-2.198697 2.13279,-2.940258 -1.7283,-0.75129 -5.54723,-0.606617 -8.46557,0.330888 -2.87824,0.927104 -3.69762,2.249302 -1.89435,2.953219 z m -14.72859,4.666655 c 1.86262,0.615693 5.45926,0.450248 8.09701,-0.372395 2.66638,-0.831739 3.41756,-2.039749 1.61845,-2.706053 -1.83918,-0.677314 -5.59874,-0.51643 -8.32761,0.360059 -2.6997,0.871961 -3.29158,2.087131 -1.38785,2.718389 z m -13.83736,4.384425 c 1.94853,0.554707 5.48789,0.374357 7.96633,-0.399641 2.50917,-0.783062 3.05629,-1.894419 1.16401,-2.494539 -1.93338,-0.605313 -5.62945,-0.43534 -8.19122,0.389271 -2.53674,0.814843 -2.92614,1.937233 -0.93912,2.504909 z m -13.02213,4.125584 c 2.01618,0.496298 5.50039,0.310106 7.84034,-0.42041 2.36083,-0.736355 2.72469,-1.765317 0.75277,-2.302519 -2.01044,-0.543673 -5.64615,-0.363299 -8.05693,0.413939 -2.38162,0.766836 -2.5966,1.79776 -0.53618,2.30899 z m -12.28034,3.891987 c 2.07866,0.445082 5.50454,0.247834 7.71125,-0.44114 2.23277,-0.694206 2.43422,-1.645949 0.39357,-2.12864 -2.07812,-0.489192 -5.65185,-0.297781 -7.92157,0.432741 -2.24469,0.724679 -2.30039,1.679029 -0.18316,2.137039 z m -11.59625,3.672731 c 2.12653,0.399014 5.50142,0.197153 7.58838,-0.452839 2.10885,-0.659165 2.16452,-1.540199 0.0686,-1.972935 -2.13538,-0.439216 -5.65026,-0.238823 -7.79139,0.447673 -2.11978,0.683151 -2.03441,1.568732 0.13437,1.978101 z m -10.9711,3.476154 c 2.16923,0.357471 5.48789,0.148595 7.46607,-0.467111 1.99536,-0.624129 1.92298,-1.442231 -0.21969,-1.828894 -2.18225,-0.393177 -5.63833,-0.185633 -7.66334,0.467742 -2.0037,0.644893 -1.79235,1.460415 0.41696,1.828263 z M 730.19542,21.924476 c 1.54818,1.087336 5.66746,0.999117 9.28545,-0.180474 3.66637,-1.202844 5.55657,-3.114136 4.14583,-4.286469 -1.45291,-1.202178 -5.78302,-1.143794 -9.58582,0.143447 -3.75179,1.272255 -5.43218,3.210155 -3.84546,4.323443 z m -18.90984,6.289233 c 1.72362,0.971215 5.77889,0.861584 9.13605,-0.239316 3.40508,-1.111361 4.92096,-2.85137 3.31034,-3.899135 -1.65075,-1.07244 -5.90903,-0.98292 -9.42655,0.204993 -3.4717,1.176208 -4.78509,2.94025 -3.01984,3.933505 z m -17.56726,5.844193 c 1.86884,0.865454 5.85539,0.735054 8.98458,-0.286109 3.16716,-1.036096 4.35615,-2.624972 2.58618,-3.56114 -1.81834,-0.956949 -6.00533,-0.843413 -9.26984,0.258866 -3.22077,1.092537 -4.21507,2.700851 -2.30092,3.588383 z m -16.36528,5.441285 c 1.99328,0.775933 5.91581,0.629299 8.83258,-0.324384 2.95581,-0.967981 3.86265,-2.422547 1.95113,-3.260093 -1.95998,-0.855754 -6.07197,-0.720154 -9.109,0.306841 -2.99801,1.015357 -3.71014,2.483532 -1.67471,3.277636 z m -15.27829,5.083162 c 2.09583,0.695484 5.94963,0.530704 8.68055,-0.362659 2.7632,-0.906357 3.41756,-2.236333 1.38994,-2.987623 -2.07398,-0.7623 -6.11359,-0.611155 -8.94604,0.345786 -2.79704,0.949176 -3.26765,2.292786 -1.12445,3.004496 z m -14.29909,4.757484 c 2.1812,0.618288 5.96885,0.442452 8.52853,-0.393169 2.59247,-0.848581 3.02454,-2.071528 0.90059,-2.743031 -2.17235,-0.683139 -6.13965,-0.515766 -8.78778,0.380837 -2.61329,0.884946 -2.86938,2.11827 -0.64134,2.755363 z m -13.40946,4.459041 c 2.25201,0.557947 5.97359,0.368492 8.37968,-0.418475 2.43314,-0.796673 2.67053,-1.924896 0.4659,-2.524376 -2.2541,-0.609857 -6.14902,-0.429484 -8.62745,0.410034 -2.45295,0.830419 -2.51906,1.96514 -0.21813,2.532817 z m -12.60099,4.192402 c 2.30977,0.495654 5.9668,0.299073 8.23181,-0.441818 2.28794,-0.74935 2.35404,-1.785445 0.0812,-2.325222 -2.32072,-0.54561 -6.14431,-0.350985 -8.47127,0.435341 -2.30147,0.78111 -2.20308,1.822404 0.15818,2.331699 z m -11.86543,3.944541 c 2.35922,0.446372 5.95429,0.240796 8.08814,-0.457381 2.15831,-0.707153 2.07031,-1.666055 -0.25664,-2.145489 -2.37746,-0.488547 -6.1313,-0.284837 -8.32135,0.454123 -2.16456,0.737015 -1.9183,1.696567 0.48985,2.148747 z m -11.1892,3.723976 c 2.39776,0.397713 5.92775,0.184897 7.94704,-0.476188 2.03651,-0.66631 1.81369,-1.551868 -0.5601,-1.98137 -2.42017,-0.437277 -6.10738,-0.226328 -8.16934,0.472313 -2.0412,0.692881 -1.66431,1.581072 0.7824,1.985245 z m 122.33157,-50.15886 c 1.78817,1.253448 6.25367,1.1918 10.0752,-0.121863 3.87721,-1.341019 5.76793,-3.507297 4.13231,-4.869714 -1.68563,-1.3935842 -6.4015,-1.3702222 -10.43074,0.07206 -3.96938,1.425362 -5.61178,3.629903 -3.77677,4.919665 z m -19.90931,6.996415 c 1.97818,1.11135 6.36664,1.021164 9.89559,-0.194698 3.57789,-1.237214 5.05162,-3.201072 3.19787,-4.407786 -1.90529,-1.23722 -6.53372,-1.172998 -10.24281,0.154479 -3.64763,1.308575 -4.87985,3.299039 -2.85065,4.448005 z m -18.39864,6.463756 c 2.13437,0.988085 6.44367,0.871309 9.71393,-0.253671 3.31447,-1.143794 4.42484,-2.925983 2.39097,-4.000355 -2.08698,-1.09838 -6.62532,-1.001054 -10.04706,0.220687 -3.3681,1.210614 -4.24788,3.014208 -2.05784,4.033429 z m -17.05343,5.991456 c 2.26447,0.881688 6.49259,0.74349 9.53168,-0.303639 3.07816,-1.061382 3.87567,-2.687226 1.69603,-3.640269 -2.23692,-0.97641 -6.68987,-0.853791 -9.85498,0.276372 -3.12029,1.119792 -3.69397,2.761839 -1.37273,3.667536 z m -15.85198,5.570389 c 2.37174,0.78307 6.52279,0.626068 9.35261,-0.345786 2.86525,-0.991326 3.38947,-2.471836 1.08801,-3.321752 -2.3608,-0.86871 -6.72373,-0.729852 -9.66237,0.325051 -2.89597,1.037394 -3.20568,2.538015 -0.77825,3.342487 z m -14.76969,5.188928 c 2.45969,0.701316 6.52952,0.525503 9.173,-0.382798 2.67576,-0.923199 2.96206,-2.279147 0.56015,-3.036275 -2.45866,-0.773967 -6.73832,-0.610491 -9.47186,0.367226 -2.69706,0.969277 -2.77618,2.33236 -0.26129,3.051847 z m -13.79834,4.848944 c 2.53207,0.623482 6.52279,0.437275 8.99918,-0.416514 2.50236,-0.86028 2.57943,-2.105271 0.0983,-2.779343 -2.54354,-0.687708 -6.73675,-0.508662 -9.28598,0.402232 -2.51699,0.900501 -2.39515,2.15329 0.18848,2.793625 z m -12.91591,4.538848 c 2.58619,0.557308 6.5035,0.358123 8.82473,-0.439213 2.34622,-0.810337 2.24315,-1.952163 -0.30608,-2.554882 -2.60704,-0.611794 -6.71747,-0.423012 -9.10222,0.432716 -2.35509,0.842773 -2.0594,1.990463 0.58357,2.561379 z m -12.11949,4.257286 c 2.63046,0.498266 6.47593,0.286745 8.65713,-0.460643 2.20461,-0.760363 1.93967,-1.809436 -0.66267,-2.349212 -2.65859,-0.545635 -6.68521,-0.340616 -8.92055,0.459327 -2.20932,0.790861 -1.76008,1.843828 0.92609,2.350528 z m -11.39065,4.002922 c 2.6648,0.443133 6.43741,0.22461 8.49054,-0.479422 2.07502,-0.719511 1.66999,-1.680994 -0.97557,-2.159145 -2.69864,-0.487226 -6.64664,-0.274416 -8.74666,0.478151 -2.07396,0.742217 -1.49039,1.709538 1.23169,2.160416 z M 710.4058,8.034821 c 2.08542,1.4636424 6.96371,1.4370354 11.00804,-0.042207 4.11307,-1.5058236 5.97984,-3.9958259 4.05893,-5.5944269 -1.97975,-1.63618635 -7.15374,-1.66085515 -11.43546,-0.02455 -4.20883,1.6122068 -5.77886,4.1502269 -3.63151,5.6605747 z m -21.00094,7.855378 c 2.29466,1.289761 7.07718,1.226175 10.7899,-0.133638 3.77261,-1.379955 5.1667,-3.619525 3.00631,-5.027352 -2.22388,-1.4448402 -7.29271,-1.4149942 -11.20274,0.07772 -3.84497,1.476608 -4.9522,3.753163 -2.59347,5.083162 z m -19.28934,7.217642 c 2.46387,1.138593 7.14747,1.041292 10.5697,-0.207698 3.47069,-1.273551 4.46289,-3.293831 2.10886,-4.536884 -2.4212,-1.270965 -7.37861,-1.204139 -10.96328,0.16282 -3.52791,1.352045 -4.2442,3.403467 -1.71528,4.581661 z m -17.77548,6.648023 c 2.59557,1.009495 7.18338,0.884267 10.3464,-0.2699 3.20828,-1.175595 3.85377,-3.006432 1.34567,-4.101579 -2.58206,-1.128856 -7.43223,-1.028297 -10.72956,0.233443 -3.24679,1.245649 -3.63148,3.098557 -0.96251,4.137911 z m -16.44023,6.147801 c 2.70749,0.895966 7.20106,0.749333 10.13088,-0.321805 2.97246,-1.090581 3.32334,-2.750805 0.68821,-3.723317 -2.70751,-0.998456 -7.45306,-0.870019 -10.49633,0.295841 -3.00058,1.14899 -3.09637,2.82738 -0.32276,3.749281 z m -15.24186,5.701462 c 2.79289,0.794736 7.18962,0.629293 9.91431,-0.367228 2.76322,-1.01273 2.85741,-2.521783 0.11919,-3.385302 -2.80589,-0.882984 -7.4468,-0.73052 -10.26519,0.345793 -2.77777,1.066577 -2.62995,2.587959 0.23168,3.406737 z m -14.17572,5.301149 c 2.86211,0.706516 7.16723,0.522903 9.70764,-0.404832 2.57317,-0.941377 2.44668,-2.318095 -0.36961,-3.086251 -2.88708,-0.781766 -7.42546,-0.610489 -10.04292,0.389927 -2.58203,0.990022 -2.22493,2.37711 0.70489,3.101156 z m -13.21422,4.944329 c 2.91517,0.627365 7.13026,0.429477 9.50149,-0.436643 2.404,-0.882322 2.08799,-2.137714 -0.79543,-2.820883 -2.94644,-0.695483 -7.38643,-0.506029 -9.82271,0.424307 -2.40609,0.925167 -1.86522,2.190263 1.11665,2.833219 z M 580.9174,56.46989 c 2.9553,0.557303 7.08291,0.346452 9.30731,-0.46712 2.24575,-0.824611 1.76214,-1.974878 -1.16556,-2.579527 -2.99641,-0.616353 -7.338,-0.408738 -9.61342,0.458016 -2.24369,0.861583 -1.54818,2.018347 1.47167,2.588631 z m -11.56612,4.325396 c 2.98551,0.496298 7.02721,0.275071 9.11524,-0.488521 2.10783,-0.770097 1.47688,-1.827624 -1.48673,-2.364159 -3.03026,-0.545611 -7.27763,-0.330866 -9.40782,0.480741 -2.10104,0.805141 -1.26707,1.86848 1.77931,2.371939 z M 697.89749,-0.74444412 c 2.46542,1.73030767 7.832,1.74327217 12.12984,0.066971 4.36815,-1.72184908 6.17455,-4.61408728 3.89287,-6.50917008 -2.3613,-1.959293 -8.09283,-2.03585 -12.65461,-0.1601206 -4.47432,1.8529082 -5.91528,4.8113358 -3.3681,6.60259038 z M 675.70701,8.1762526 c 2.6898,1.5142338 7.93822,1.4824498 11.85656,-0.047315 3.97768,-1.5681013 5.24843,-4.1476473 2.70285,-5.8052758 -2.63256,-1.70627465 -8.22977,-1.73027775 -12.35947,-0.027222 -4.05683,1.6764531 -4.97617,4.3130589 -2.19994,5.8798648 z m -20.23626,8.1350144 c 2.86992,1.32674 7.99863,1.257965 11.58275,-0.143935 3.63987,-1.431865 4.45924,-3.744751 1.7023,-5.197362 -2.84027,-1.4980116 -8.30212,-1.4662406 -12.0591,0.08239 -3.69449,1.527861 -4.18124,3.883587 -1.22595,5.258981 z m -18.5298,7.446645 c 3.01204,1.170394 8.01997,1.067232 11.31362,-0.220687 3.34104,-1.314406 3.78092,-3.395704 0.85949,-4.672502 -3.00633,-1.3144 -8.33439,-1.239145 -11.76706,0.175819 -3.37905,1.396182 -3.4998,3.507957 -0.40605,4.717268 z m -17.02847,6.844604 c 3.11825,1.032197 8.01163,0.901797 11.04709,-0.288064 3.07761,-1.209312 3.19683,-3.086229 0.14934,-4.21055 -3.13752,-1.154821 -8.33178,-1.048437 -11.4823,0.249772 -3.10103,1.282622 -2.91678,3.185498 0.28582,4.248842 z m -15.70153,6.315186 c 3.19945,0.908931 7.98038,0.751288 10.78523,-0.343857 2.84704,-1.120427 2.69241,-2.818286 -0.45549,-3.810264 -3.23538,-1.017937 -8.3021,-0.878436 -11.20222,0.315307 -2.85689,1.180767 -2.41284,2.900037 0.87248,3.838814 z m -14.52763,5.838988 c 3.2614,0.804496 7.93196,0.626723 10.53485,-0.391863 2.6367,-1.034805 2.2473,-2.574997 -0.97556,-3.450847 -3.30826,-0.89854 -8.25055,-0.733096 -10.92996,0.367219 -2.63929,1.091885 -1.97609,2.646344 1.37067,3.475491 z m -13.48025,5.414683 c 3.30827,0.713014 7.87005,0.517727 10.29123,-0.42818 2.45347,-0.959548 1.86469,-2.362203 -1.41595,-3.136834 -3.36187,-0.792166 -8.18605,-0.609856 -10.66761,0.413274 -2.44617,1.012723 -1.59504,2.422516 1.79233,3.15174 z m -12.53903,5.044253 c 3.33896,0.62866 7.79766,0.418467 10.05382,-0.463224 2.28584,-0.898563 1.52684,-2.173412 -1.79233,-2.857862 -3.4004,-0.700043 -8.11,-0.496324 -10.41511,0.450245 -2.27075,0.941378 -1.26603,2.22594 2.15362,2.870841 z m -11.69625,4.70169 c 3.3603,0.55405 7.71646,0.33086 9.82687,-0.490486 2.13436,-0.84275 1.2275,-2.002113 -2.11928,-2.60873 -3.42639,-0.616987 -8.01994,-0.403539 -10.16729,0.481393 -2.11874,0.879754 -0.97451,2.048183 2.4597,2.617823 z m 131.00173,-69.139502 c 2.96101,2.0735008 8.92681,2.1565468 13.49898,0.223872 4.6581,-1.983301 6.33903,-5.403009 3.58467,-7.695132 -2.86576,-2.369334 -9.28651,-2.545147 -14.15594,-0.354225 -4.76949,2.156523 -5.99441,5.667053 -2.92771,7.825538 z m -23.47836,10.26691118 c 3.20827,1.80163277 9.01944,1.81786667 13.1533,0.068895 4.20363,-1.79062498 5.27602,-4.81329158 2.2286,-6.79596328 -3.16147,-2.0501221 -9.40417,-2.1409501 -13.77334,-0.1765501 -4.27965,1.9411565 -4.92151,5.0332168 -1.60856,6.90365518 z M 638.2653,8.3254651 c 3.38944,1.5693963 9.05224,1.5375953 12.804,-0.051238 3.81477,-1.6225864 4.38324,-4.3098306 1.11405,-6.0368699 -3.38374,-1.7776543 -9.4557,-1.8016626 -13.39487,-0.026688 -3.86214,1.7465127 -4.02457,4.4888833 -0.52318,6.1147284 z m -19.28672,8.4334519 c 3.52949,1.376054 9.04444,1.298195 12.46667,-0.151776 3.47796,-1.479221 3.62945,-3.875156 0.1885,-5.380974 -3.5503,-1.5512066 -9.45255,-1.5194286 -13.02215,0.09072 -3.50604,1.582373 -3.27076,4.023727 0.36702,5.44195 z M 601.378,24.456011 c 3.63151,1.202815 9.00069,1.090587 12.13661,-0.239322 3.18229,-1.354007 2.985,-3.496923 -0.58042,-4.813927 -3.67577,-1.354007 -9.41194,-1.274193 -12.66293,0.186845 -3.19476,1.447416 -2.6341,3.624702 1.10674,4.866482 z m -16.12789,7.052838 c 3.70388,1.05557 8.93462,0.910892 11.8186,-0.30881 2.92299,-1.241749 2.43782,-3.17188 -1.22179,-4.323443 -3.76582,-1.185332 -9.34379,-1.065936 -12.31627,0.269875 -2.92405,1.321564 -2.09163,3.275031 1.71946,4.362378 z m -14.83008,6.485187 c 3.75646,0.927737 8.84976,0.757101 11.51038,-0.365258 2.69554,-1.148354 1.96415,-2.883833 -1.75953,-3.897228 -3.83037,-1.039966 -9.25368,-0.889457 -11.98359,0.337384 -2.68407,1.213854 -1.6247,2.970097 2.23274,3.925102 z m -13.68431,5.983002 c 3.78769,0.815504 8.7529,0.626721 11.21264,-0.415852 2.49355,-1.061399 1.55652,-2.626899 -2.21192,-3.517686 -3.87047,-0.912174 -9.14648,-0.736361 -11.65929,0.391863 -2.47742,1.118486 -1.22802,2.705421 2.65857,3.541675 z m -12.66764,5.541209 c 3.80696,0.717549 8.6483,0.506692 10.9284,-0.457384 2.30977,-0.98679 1.20411,-2.404378 -2.59193,-3.187447 -3.89233,-0.801872 -9.02985,-0.605953 -11.3516,0.439877 -2.28897,1.0335 -0.88602,2.467937 3.01513,3.204954 z m -11.75868,5.142209 c 3.81112,0.62866 8.5332,0.405472 10.65716,-0.490489 2.14997,-0.919967 0.89435,-2.207794 -2.91261,-2.894838 -3.90274,-0.707149 -8.90336,-0.48529 -11.05904,0.476218 -2.11979,0.966012 -0.5867,2.260975 3.31449,2.909109 z m 132.53741,-78.60125 c 3.62266,2.537378 10.33391,2.71579 15.20956,0.447645 4.97827,-2.329097 6.43743,-6.444943 3.03704,-9.267771 -3.54147,-2.933752 -10.8326,-3.238026 -16.0446,-0.634489 -5.08964,2.56462 -5.96626,6.804998 -2.202,9.454615 z m -24.84333,12.006919 c 3.88035,2.1779298 10.39012,2.2707138 14.75097,0.243252 4.44622,-2.079332 5.20991,-5.676814 1.49459,-8.095437 -3.86632,-2.505577 -10.92217,-2.700222 -15.53966,-0.386032 -4.51701,2.267479 -4.73099,5.96486 -0.7059,8.238176 z m -22.23729,10.7463156 c 4.06355,1.88147075 10.3802,1.90611605 14.30326,0.077734 3.99851,-1.8658788 4.19737,-5.0325571 0.25194,-7.1112227 -4.0938,-2.1565409 -10.92421,-2.2551619 -15.043,-0.1919995 -4.03339,2.0287218 -3.72107,5.2693532 0.4878,7.2254182 z m -20.0197,9.6758686 c 4.1932,1.6310198 10.32294,1.5959958 13.87276,-0.05593 3.61069,-1.687469 3.3556,-4.483708 -0.75745,-6.2853406 -4.25517,-1.8548706 -10.86801,-1.8814526 -14.56408,-0.029189 -3.62215,1.8230683 -2.88709,4.6783337 1.44877,6.3703316 z m -18.117,8.7558968 c 4.2812,1.418228 10.22667,1.335176 13.45213,-0.165512 3.28065,-1.535664 2.65596,-4.013991 -1.57214,-5.576255 -4.36968,-1.6096106 -10.76804,-1.5726366 -14.1044,0.09858 -3.27596,1.644658 -2.19837,4.176828 2.22441,5.643075 z m -16.4756,7.963736 c 4.33896,1.233314 10.11056,1.111351 13.05387,-0.256929 2.99174,-1.401358 2.06148,-3.611089 -2.24161,-4.967034 -4.44203,-1.397459 -10.63789,-1.314406 -13.66554,0.20229 -2.973,1.498684 -1.61951,3.745393 2.85328,5.021548 z m -15.04616,7.270826 c 4.36865,1.079566 9.97211,0.925164 12.67182,-0.330858 2.73975,-1.28069 1.56119,-3.26206 -2.79132,-4.445431 -4.48319,-1.215809 -10.48592,-1.087347 -13.24496,0.290003 -2.71167,1.367625 -1.13327,3.372997 3.36446,4.486286 z m -13.79621,6.668769 c 4.37905,0.943977 9.82477,0.757787 12.30947,-0.394441 2.51541,-1.183362 1.13173,-2.953248 -3.24265,-3.98674 -4.50401,-1.061382 -10.32088,-0.897904 -12.84879,0.358783 -2.48,1.256029 -0.71995,3.052481 3.78197,4.022398 z m -12.69316,6.136128 c 4.37596,0.823308 9.66914,0.617658 11.95967,-0.446349 2.3228,-1.085403 0.76784,-2.685923 -3.61228,-3.59032 -4.5019,-0.926463 -10.15012,-0.740249 -12.46823,0.421706 -2.2801,1.14897 -0.37272,2.765077 4.12084,3.614963 z m -11.71963,5.663178 c 4.36084,0.72015 9.50616,0.498922 11.62802,-0.486586 2.14735,-1.008194 0.45291,-2.449768 -3.91836,-3.241927 -4.48627,-0.807714 -9.96844,-0.598823 -12.10436,0.46908 -2.10467,1.055543 -0.0771,2.519184 4.3947,3.259433 z"
       fill="url(#a)"
       id="path947"
       style="fill:url(#a-9);stroke-width:0.58115" />
    <text
       xml:space="preserve"
       style="font-style:normal;font-weight:normal;font-size:69.9521px;line-height:1.25;font-family:sans-serif;fill:#b2fd1f;fill-opacity:1;stroke:none;stroke-width:0.286321"
       x="102.53382"
       y="13.89739"
       id="text869-0-4"
       transform="scale(1.0435657,0.95825304)"><tspan
         sodipodi:role="line"
         id="tspan867-4"
         x="102.53382"
         y="13.89739"
         style="font-size:69.9521px;fill:#b2fd1f;fill-opacity:1;stroke-width:0.286321">Monde </tspan><tspan
         sodipodi:role="line"
         x="102.53382"
         y="101.33752"
         style="font-size:69.9521px;fill:#b2fd1f;fill-opacity:1;stroke-width:0.286321"
         id="tspan969" /></text>
    <text
       xml:space="preserve"
       style="font-style:normal;font-weight:normal;font-size:59.3502px;line-height:1.25;font-family:sans-serif;fill:#b2fd1f;fill-opacity:1;stroke:none;stroke-width:0.242926"
       x="103.6385"
       y="75.156395"
       id="text869-0-1"
       transform="scale(1.0501367,0.95225697)"><tspan
         sodipodi:role="line"
         x="103.6385"
         y="75.156395"
         style="font-size:59.3502px;fill:#b2fd1f;fill-opacity:1;stroke-width:0.242926"
         id="tspan969-9">réel</tspan></text>
    <path
       id="path1013-4"
       style="fill:#b2fd1f;fill-opacity:1;stroke:none;stroke-width:7.85566;stroke-linecap:round;stroke-linejoin:round;stroke-opacity:1;paint-order:stroke fill markers"
       d="m 50.462708,-25.766419 c -0.49045,1.1e-4 -0.98158,0.0104 -1.47277,0.0305 -15.7031,0.25486 -30.58748,10.7358 -36.12028,25.43409995 -5.9022904,14.58207005 -2.0338,32.40970005 9.38134,43.23405005 11.14517,11.10203 29.07556,14.46141 43.48365,8.14576 14.53473,-5.94926 24.58746,-21.12633 24.39489,-36.83031 0.004,-5.69906 -1.2321,-11.39393 -3.59771,-16.57883 -6.14509,-13.94597 -20.865,-23.43885 -36.06912,-23.43526 z m -13.78675,15.71066 37.56956,21.24742 c 3.11052,1.75395 4.70599,4.08398 3.56867,6.90506 -0.77455,1.20539 -2.67605,2.49845 -4.01269,3.3942 l -38.4064,22.42873 c -3.27197,1.16691 -5.12408,0.1551 -5.94756,-1.50268 -0.84651,-1.70414 -0.43406,-3.87772 2.66384,-5.65387 l 36.24843,-20.78322 -35.52909,-20.03444 c -3.11053,-1.75395 -3.33765,-3.3877 -2.27244,-5.57225 1.79825,-2.24678 3.83192,-1.69264 6.11768,-0.42895 z"
       sodipodi:nodetypes="sccccccscccccsccccc" />
  </g>
</svg>
