<?xml version="1.0" encoding="UTF-8" standalone="no"?>
<svg
   xmlns:dc="http://purl.org/dc/elements/1.1/"
   xmlns:cc="http://creativecommons.org/ns#"
   xmlns:rdf="http://www.w3.org/1999/02/22-rdf-syntax-ns#"
   xmlns:svg="http://www.w3.org/2000/svg"
   xmlns="http://www.w3.org/2000/svg"
   xmlns:sodipodi="http://sodipodi.sourceforge.net/DTD/sodipodi-0.dtd"
   xmlns:inkscape="http://www.inkscape.org/namespaces/inkscape"
   width="800mm"
   height="120mm"
   viewBox="0 0 799.99998 34.285714"
   version="1.1"
   id="svg856"
   inkscape:version="1.0.2-2 (e86c870879, 2021-01-15)"
   sodipodi:docname="Discover101.svg">
  <defs
     id="defs850">
    <symbol
       id="b">
      <path
         d="m -329.25,1375.8 c 6.991,-10.991 6.2892,-25.332 5.4781,-37.867 -5.5373,-20.756 -20.475,-37.801 -24.789,-59.058 -4.8528,-13.307 -11.648,-26.405 -10.947,-41.013 0.23999,-16.472 -0.75253,-33.05 0.54721,-49.457 4.0561,-16.96 17.993,-29.664 33.833,-35.897 15.863,-8.8695 34.69,-9.928 50.426,-19.145 13.312,-4.9492 27.833,-0.942 41.669,-2.0204 13.8,-0.1761 27.966,-0.8267 40.931,4.8174 15.151,2.6765 27.597,12.516 36.749,24.485 7.8611,9.0665 15.369,19.338 13.971,32.089 0.40509,12.244 0.76472,25.883 -8.0613,35.583 -8.4685,11.374 -22.285,18.386 -27.378,32.284 -7.2562,19.212 -25.697,20.182 -37.272,36.406 -6.9031,8.0194 -22.589,20.124 -20.806,33.839 1.2775,10.818 3.1162,21.854 -3.046,31.632 -4.5165,9.397 -2.5966,26.066 -16.311,27.159 -21.329,1.4945 -43.446,-0.156 -62.872,-9.7981 -3.8434,-1.916 -8.2785,-2.1248 -12.122,-4.0406 z"
         fill="#ffff55"
         fill-rule="evenodd"
         stroke="#000000"
         stroke-width="1pt"
         id="path858" />
      <path
         d="m -341.38,1378.6 c 4.3419,-8.4014 5.2926,-18.973 6.2196,-28.53 -0.16571,-12.728 -6.4854,-24.338 -10.846,-36.083 -8.3062,-21.352 -16.256,-42.71 -21.174,-65.108 -3.8528,-17.138 -4.8815,-34.796 -3.2283,-52.249 4.3344,-19.111 19.831,-32.786 35.27,-43.707 24.584,-16.626 48.936,-26.3 78.225,-27.115 35.175,-0.3461 71.16,2.4932 103.25,17.832 13.62,7.3578 20.105,20.671 21.643,35.574 -0.82579,19.173 -3.8397,39.054 -13.849,55.664 -9.5267,13.927 -20.612,26.774 -32.999,38.217 -8.8023,7.3242 -17.005,15.224 -25.168,23.239 -7.4854,9.3079 -15.315,18.503 -20.948,29.051 -4.0502,8.816 -3.6419,18.38 -3.6646,27.84 0.44373,9.0319 -0.071,17.857 -1.546,26.745 l -23.653,11.745 c 1.2592,-8.8362 2.376,-17.521 1.7103,-26.515 -0.0156,-9.6822 -0.58997,-19.607 3.2774,-28.711 5.0429,-11.164 13.278,-20.284 20.665,-30.02 8.0062,-8.2542 16.221,-16.239 25.092,-23.58 12.731,-11.064 23.829,-23.986 33.634,-37.704 10.277,-15.798 13.65,-35.322 14.277,-53.944 -1.7227,-14.054 -6.845,-26.453 -20.083,-33.381 -31.647,-15.938 -67.419,-18.473 -102.38,-16.898 -16.565,0.7966 -74.585,20.697 -33.456,2.5834 -15.387,10.24 -30.574,23.153 -35.836,41.49 -2.1488,17.181 -1.1141,34.735 2.3156,51.7 5.4699,22.087 12.044,43.812 21.228,64.699 4.5313,12.041 11.454,23.771 11.754,36.846 -0.90591,10.138 -2.6239,20.19 -5.0072,30.074 l -24.73,10.244 z"
         id="path860" />
      <path
         d="m -322.21,1365.9 c 9.2844,3.4028 18.441,7.63 27.829,10.967 12.563,5.0112 25.923,4.8857 39.116,6.1122 7.4015,1.9735 13.719,0.5867 20.621,-1.4974 l -20.659,16.407 c -7.2032,1.5709 -14.084,1.9284 -21.398,0.2262 -13.354,-0.9523 -26.644,-1.6484 -39.36,-6.429 -9.1912,-3.429 -18.198,-8.4564 -27.823,-10.038 l 21.675,-15.748 z"
         id="path862" />
      <path
         d="m -333.48,1382.1 c 2.7451,8.3029 11.135,12.473 18.679,16.24 12.707,3.2618 25.797,5.3574 38.923,6.033 11.51,0.3213 23.228,-0.7633 34.434,-3.39 2.2183,-0.1758 4.2549,-1.1292 6.4005,-1.6985 l -20.978,16.122 c -2.1679,0.5041 -4.2595,1.3578 -6.5098,1.5137 -11.34,2.1112 -22.9,3.4158 -34.464,2.6517 -13.372,-0.8012 -26.96,-2.7716 -39.738,-6.7354 -8.3193,-4.4993 -17.087,-9.3999 -20.618,-18.573 l 23.872,-12.163 z"
         id="path864" />
      <path
         d="m -330.3,1412.4 c 7.784,3.6222 15.597,7.7073 23.718,10.857 23.56,4.5735 33.618,5.0375 57.679,5.0889 22.474,-10.554 -21.18,21.366 -9.8842,3.7424 l 23.806,-11.46 c -5.2487,13.99 -20.492,21.295 -35.064,23.261 -24.198,-1.3567 -34.12,-1.8744 -57.931,-6.1772 -8.0373,-2.9164 -15.984,-7.3906 -23.998,-9.564 l 21.675,-15.748 z"
         id="path866" />
      <path
         d="m -323.38,1432.6 c 3.327,8.7078 11.481,13.549 18.901,18.675 9.7774,5.9067 20.834,5.7185 31.861,5.7312 9.6668,0.7501 18.599,-0.8118 27.532,-4.1766 -35.251,21.209 -16.888,14.046 -13.85,0.1005 l 23.436,-12.118 c -0.52879,17.479 -13.851,19.772 -30.297,28.402 -9.2488,2.6202 -18.424,4.0398 -28.131,3.2709 -11.437,-0.165 -22.762,-0.5675 -32.671,-7.0503 -8.129,-5.6904 -16.502,-11.29 -20.653,-20.672 l 23.872,-12.163 z"
         id="path868" />
      <path
         d="m -274.89,1468.9 c 0.11191,7.9094 -1.2498,15.687 -1.9622,23.542 l -23.533,11.802 c 0.63504,-7.7368 2.2124,-15.402 1.6239,-23.181 l 23.872,-12.163 z"
         id="path870" />
      <path
         d="m -477.11,1096.4 c 13.764,9.7628 12.385,10.812 27.585,18.435 10.686,5.0255 20.506,11.579 31.11,16.791 6.1851,3.28 1.8132,5.2714 11.543,9.3213 l -14.099,14.164 c -5.5677,-3.9774 -11.085,-8.0697 -17.217,-11.161 -10.582,-5.2646 -20.577,-11.455 -31.125,-16.761 -14.66,-7.8263 -12.79,-10.038 -27.405,-17.096 l 19.608,-13.693 z"
         id="path872" />
      <path
         d="m -332.53,994.39 c 12.15,12.29 35.234,66.62 37.614,73.711 l -17.061,8.5895 c -2.2965,-6.8735 -23.837,-61.532 -37.315,-72.355 l 16.762,-9.9456 z"
         id="path874" />
      <path
         d="m -148.84,1004.2 c -5.0361,20.346 -14.512,53.758 -22.288,73.293 l -17.598,-8.9177 c 8.6834,-18.68 18.449,-51.752 22.076,-71.971 l 17.811,7.5956 z"
         id="path876" />
      <path
         d="m -71.218,1155.5 c 22.865,-13.489 53.42,-17.967 79.503,-25.331 l 2.8374,16.354 c -25.062,6.8988 -51.567,14.028 -75.394,22.926 l -6.9467,-13.949 z"
         id="path878" />
    </symbol>
    <symbol
       id="a">
      <path
         d="m 410.68,194.38 c -18.304,-4.9047 -36.828,0.70825 -49.616,12.902 -6.6812,-8.0308 -15.728,-14.229 -26.579,-17.136 -27.927,-7.4828 -56.696,9.1272 -64.179,37.054 -0.54987,2.0521 -0.69464,4.1156 -0.98953,6.168 -25.149,-2.6143 -49.213,13.13 -55.965,38.326 -6.6896,24.966 5.934,50.494 28.623,60.991 -1.2333,2.6744 -2.3833,5.4297 -3.1711,8.3695 -7.4829,27.927 9.1437,56.634 37.07,64.117 13.679,3.6657 27.502,1.5132 38.977,-4.8763 6.3242,13.529 18.115,24.419 33.659,28.583 22.177,5.9426 44.682,-3.471 56.832,-21.514 4.9215,3.4841 10.392,6.3662 16.554,8.0176 27.927,7.4828 56.634,-9.144 64.117,-37.071 3.7628,-14.043 1.4345,-28.254 -5.358,-39.901 6.7224,-6.4101 11.984,-14.53 14.563,-24.152 7.483,-27.927 -9.1436,-56.635 -37.07,-64.118 -2.9398,-0.78735 -5.8846,-1.2309 -8.8166,-1.5 1.7378,-24.524 -14.024,-47.662 -38.65,-54.261 z"
         fill="#ffffff"
         stroke="#000000"
         stroke-linejoin="round"
         stroke-width="14.79"
         id="path881" />
    </symbol>
    <symbol
       id="b-5">
      <path
         d="m -329.25,1375.8 c 6.991,-10.991 6.2892,-25.332 5.4781,-37.867 -5.5373,-20.756 -20.475,-37.801 -24.789,-59.058 -4.8528,-13.307 -11.648,-26.405 -10.947,-41.013 0.23999,-16.472 -0.75253,-33.05 0.54721,-49.457 4.0561,-16.96 17.993,-29.664 33.833,-35.897 15.863,-8.8695 34.69,-9.928 50.426,-19.145 13.312,-4.9492 27.833,-0.942 41.669,-2.0204 13.8,-0.1761 27.966,-0.8267 40.931,4.8174 15.151,2.6765 27.597,12.516 36.749,24.485 7.8611,9.0665 15.369,19.338 13.971,32.089 0.40509,12.244 0.76472,25.883 -8.0613,35.583 -8.4685,11.374 -22.285,18.386 -27.378,32.284 -7.2562,19.212 -25.697,20.182 -37.272,36.406 -6.9031,8.0194 -22.589,20.124 -20.806,33.839 1.2775,10.818 3.1162,21.854 -3.046,31.632 -4.5165,9.397 -2.5966,26.066 -16.311,27.159 -21.329,1.4945 -43.446,-0.156 -62.872,-9.7981 -3.8434,-1.916 -8.2785,-2.1248 -12.122,-4.0406 z"
         fill="#ffff55"
         fill-rule="evenodd"
         stroke="#000000"
         stroke-width="1pt"
         id="path858-4" />
      <path
         d="m -341.38,1378.6 c 4.3419,-8.4014 5.2926,-18.973 6.2196,-28.53 -0.16571,-12.728 -6.4854,-24.338 -10.846,-36.083 -8.3062,-21.352 -16.256,-42.71 -21.174,-65.108 -3.8528,-17.138 -4.8815,-34.796 -3.2283,-52.249 4.3344,-19.111 19.831,-32.786 35.27,-43.707 24.584,-16.626 48.936,-26.3 78.225,-27.115 35.175,-0.3461 71.16,2.4932 103.25,17.832 13.62,7.3578 20.105,20.671 21.643,35.574 -0.82579,19.173 -3.8397,39.054 -13.849,55.664 -9.5267,13.927 -20.612,26.774 -32.999,38.217 -8.8023,7.3242 -17.005,15.224 -25.168,23.239 -7.4854,9.3079 -15.315,18.503 -20.948,29.051 -4.0502,8.816 -3.6419,18.38 -3.6646,27.84 0.44373,9.0319 -0.071,17.857 -1.546,26.745 l -23.653,11.745 c 1.2592,-8.8362 2.376,-17.521 1.7103,-26.515 -0.0156,-9.6822 -0.58997,-19.607 3.2774,-28.711 5.0429,-11.164 13.278,-20.284 20.665,-30.02 8.0062,-8.2542 16.221,-16.239 25.092,-23.58 12.731,-11.064 23.829,-23.986 33.634,-37.704 10.277,-15.798 13.65,-35.322 14.277,-53.944 -1.7227,-14.054 -6.845,-26.453 -20.083,-33.381 -31.647,-15.938 -67.419,-18.473 -102.38,-16.898 -16.565,0.7966 -74.585,20.697 -33.456,2.5834 -15.387,10.24 -30.574,23.153 -35.836,41.49 -2.1488,17.181 -1.1141,34.735 2.3156,51.7 5.4699,22.087 12.044,43.812 21.228,64.699 4.5313,12.041 11.454,23.771 11.754,36.846 -0.90591,10.138 -2.6239,20.19 -5.0072,30.074 l -24.73,10.244 z"
         id="path860-6" />
      <path
         d="m -322.21,1365.9 c 9.2844,3.4028 18.441,7.63 27.829,10.967 12.563,5.0112 25.923,4.8857 39.116,6.1122 7.4015,1.9735 13.719,0.5867 20.621,-1.4974 l -20.659,16.407 c -7.2032,1.5709 -14.084,1.9284 -21.398,0.2262 -13.354,-0.9523 -26.644,-1.6484 -39.36,-6.429 -9.1912,-3.429 -18.198,-8.4564 -27.823,-10.038 l 21.675,-15.748 z"
         id="path862-0" />
      <path
         d="m -333.48,1382.1 c 2.7451,8.3029 11.135,12.473 18.679,16.24 12.707,3.2618 25.797,5.3574 38.923,6.033 11.51,0.3213 23.228,-0.7633 34.434,-3.39 2.2183,-0.1758 4.2549,-1.1292 6.4005,-1.6985 l -20.978,16.122 c -2.1679,0.5041 -4.2595,1.3578 -6.5098,1.5137 -11.34,2.1112 -22.9,3.4158 -34.464,2.6517 -13.372,-0.8012 -26.96,-2.7716 -39.738,-6.7354 -8.3193,-4.4993 -17.087,-9.3999 -20.618,-18.573 l 23.872,-12.163 z"
         id="path864-0" />
      <path
         d="m -330.3,1412.4 c 7.784,3.6222 15.597,7.7073 23.718,10.857 23.56,4.5735 33.618,5.0375 57.679,5.0889 22.474,-10.554 -21.18,21.366 -9.8842,3.7424 l 23.806,-11.46 c -5.2487,13.99 -20.492,21.295 -35.064,23.261 -24.198,-1.3567 -34.12,-1.8744 -57.931,-6.1772 -8.0373,-2.9164 -15.984,-7.3906 -23.998,-9.564 l 21.675,-15.748 z"
         id="path866-8" />
      <path
         d="m -323.38,1432.6 c 3.327,8.7078 11.481,13.549 18.901,18.675 9.7774,5.9067 20.834,5.7185 31.861,5.7312 9.6668,0.7501 18.599,-0.8118 27.532,-4.1766 -35.251,21.209 -16.888,14.046 -13.85,0.1005 l 23.436,-12.118 c -0.52879,17.479 -13.851,19.772 -30.297,28.402 -9.2488,2.6202 -18.424,4.0398 -28.131,3.2709 -11.437,-0.165 -22.762,-0.5675 -32.671,-7.0503 -8.129,-5.6904 -16.502,-11.29 -20.653,-20.672 l 23.872,-12.163 z"
         id="path868-6" />
      <path
         d="m -274.89,1468.9 c 0.11191,7.9094 -1.2498,15.687 -1.9622,23.542 l -23.533,11.802 c 0.63504,-7.7368 2.2124,-15.402 1.6239,-23.181 l 23.872,-12.163 z"
         id="path870-4" />
      <path
         d="m -477.11,1096.4 c 13.764,9.7628 12.385,10.812 27.585,18.435 10.686,5.0255 20.506,11.579 31.11,16.791 6.1851,3.28 1.8132,5.2714 11.543,9.3213 l -14.099,14.164 c -5.5677,-3.9774 -11.085,-8.0697 -17.217,-11.161 -10.582,-5.2646 -20.577,-11.455 -31.125,-16.761 -14.66,-7.8263 -12.79,-10.038 -27.405,-17.096 l 19.608,-13.693 z"
         id="path872-3" />
      <path
         d="m -332.53,994.39 c 12.15,12.29 35.234,66.62 37.614,73.711 l -17.061,8.5895 c -2.2965,-6.8735 -23.837,-61.532 -37.315,-72.355 l 16.762,-9.9456 z"
         id="path874-3" />
      <path
         d="m -148.84,1004.2 c -5.0361,20.346 -14.512,53.758 -22.288,73.293 l -17.598,-8.9177 c 8.6834,-18.68 18.449,-51.752 22.076,-71.971 l 17.811,7.5956 z"
         id="path876-9" />
      <path
         d="m -71.218,1155.5 c 22.865,-13.489 53.42,-17.967 79.503,-25.331 l 2.8374,16.354 c -25.062,6.8988 -51.567,14.028 -75.394,22.926 l -6.9467,-13.949 z"
         id="path878-1" />
    </symbol>
    <symbol
       id="a-3">
      <path
         d="m 410.68,194.38 c -18.304,-4.9047 -36.828,0.70825 -49.616,12.902 -6.6812,-8.0308 -15.728,-14.229 -26.579,-17.136 -27.927,-7.4828 -56.696,9.1272 -64.179,37.054 -0.54987,2.0521 -0.69464,4.1156 -0.98953,6.168 -25.149,-2.6143 -49.213,13.13 -55.965,38.326 -6.6896,24.966 5.934,50.494 28.623,60.991 -1.2333,2.6744 -2.3833,5.4297 -3.1711,8.3695 -7.4829,27.927 9.1437,56.634 37.07,64.117 13.679,3.6657 27.502,1.5132 38.977,-4.8763 6.3242,13.529 18.115,24.419 33.659,28.583 22.177,5.9426 44.682,-3.471 56.832,-21.514 4.9215,3.4841 10.392,6.3662 16.554,8.0176 27.927,7.4828 56.634,-9.144 64.117,-37.071 3.7628,-14.043 1.4345,-28.254 -5.358,-39.901 6.7224,-6.4101 11.984,-14.53 14.563,-24.152 7.483,-27.927 -9.1436,-56.635 -37.07,-64.118 -2.9398,-0.78735 -5.8846,-1.2309 -8.8166,-1.5 1.7378,-24.524 -14.024,-47.662 -38.65,-54.261 z"
         fill="#ffffff"
         stroke="#000000"
         stroke-linejoin="round"
         stroke-width="14.79"
         id="path881-7" />
    </symbol>
    <symbol
       id="b-7">
      <path
         d="m -329.25,1375.8 c 6.991,-10.991 6.2892,-25.332 5.4781,-37.867 -5.5373,-20.756 -20.475,-37.801 -24.789,-59.058 -4.8528,-13.307 -11.648,-26.405 -10.947,-41.013 0.23999,-16.472 -0.75253,-33.05 0.54721,-49.457 4.0561,-16.96 17.993,-29.664 33.833,-35.897 15.863,-8.8695 34.69,-9.928 50.426,-19.145 13.312,-4.9492 27.833,-0.942 41.669,-2.0204 13.8,-0.1761 27.966,-0.8267 40.931,4.8174 15.151,2.6765 27.597,12.516 36.749,24.485 7.8611,9.0665 15.369,19.338 13.971,32.089 0.40509,12.244 0.76472,25.883 -8.0613,35.583 -8.4685,11.374 -22.285,18.386 -27.378,32.284 -7.2562,19.212 -25.697,20.182 -37.272,36.406 -6.9031,8.0194 -22.589,20.124 -20.806,33.839 1.2775,10.818 3.1162,21.854 -3.046,31.632 -4.5165,9.397 -2.5966,26.066 -16.311,27.159 -21.329,1.4945 -43.446,-0.156 -62.872,-9.7981 -3.8434,-1.916 -8.2785,-2.1248 -12.122,-4.0406 z"
         fill="#ffff55"
         fill-rule="evenodd"
         stroke="#000000"
         stroke-width="1pt"
         id="path858-6" />
      <path
         d="m -341.38,1378.6 c 4.3419,-8.4014 5.2926,-18.973 6.2196,-28.53 -0.16571,-12.728 -6.4854,-24.338 -10.846,-36.083 -8.3062,-21.352 -16.256,-42.71 -21.174,-65.108 -3.8528,-17.138 -4.8815,-34.796 -3.2283,-52.249 4.3344,-19.111 19.831,-32.786 35.27,-43.707 24.584,-16.626 48.936,-26.3 78.225,-27.115 35.175,-0.3461 71.16,2.4932 103.25,17.832 13.62,7.3578 20.105,20.671 21.643,35.574 -0.82579,19.173 -3.8397,39.054 -13.849,55.664 -9.5267,13.927 -20.612,26.774 -32.999,38.217 -8.8023,7.3242 -17.005,15.224 -25.168,23.239 -7.4854,9.3079 -15.315,18.503 -20.948,29.051 -4.0502,8.816 -3.6419,18.38 -3.6646,27.84 0.44373,9.0319 -0.071,17.857 -1.546,26.745 l -23.653,11.745 c 1.2592,-8.8362 2.376,-17.521 1.7103,-26.515 -0.0156,-9.6822 -0.58997,-19.607 3.2774,-28.711 5.0429,-11.164 13.278,-20.284 20.665,-30.02 8.0062,-8.2542 16.221,-16.239 25.092,-23.58 12.731,-11.064 23.829,-23.986 33.634,-37.704 10.277,-15.798 13.65,-35.322 14.277,-53.944 -1.7227,-14.054 -6.845,-26.453 -20.083,-33.381 -31.647,-15.938 -67.419,-18.473 -102.38,-16.898 -16.565,0.7966 -74.585,20.697 -33.456,2.5834 -15.387,10.24 -30.574,23.153 -35.836,41.49 -2.1488,17.181 -1.1141,34.735 2.3156,51.7 5.4699,22.087 12.044,43.812 21.228,64.699 4.5313,12.041 11.454,23.771 11.754,36.846 -0.90591,10.138 -2.6239,20.19 -5.0072,30.074 l -24.73,10.244 z"
         id="path860-64" />
      <path
         d="m -322.21,1365.9 c 9.2844,3.4028 18.441,7.63 27.829,10.967 12.563,5.0112 25.923,4.8857 39.116,6.1122 7.4015,1.9735 13.719,0.5867 20.621,-1.4974 l -20.659,16.407 c -7.2032,1.5709 -14.084,1.9284 -21.398,0.2262 -13.354,-0.9523 -26.644,-1.6484 -39.36,-6.429 -9.1912,-3.429 -18.198,-8.4564 -27.823,-10.038 l 21.675,-15.748 z"
         id="path862-2" />
      <path
         d="m -333.48,1382.1 c 2.7451,8.3029 11.135,12.473 18.679,16.24 12.707,3.2618 25.797,5.3574 38.923,6.033 11.51,0.3213 23.228,-0.7633 34.434,-3.39 2.2183,-0.1758 4.2549,-1.1292 6.4005,-1.6985 l -20.978,16.122 c -2.1679,0.5041 -4.2595,1.3578 -6.5098,1.5137 -11.34,2.1112 -22.9,3.4158 -34.464,2.6517 -13.372,-0.8012 -26.96,-2.7716 -39.738,-6.7354 -8.3193,-4.4993 -17.087,-9.3999 -20.618,-18.573 l 23.872,-12.163 z"
         id="path864-4" />
      <path
         d="m -330.3,1412.4 c 7.784,3.6222 15.597,7.7073 23.718,10.857 23.56,4.5735 33.618,5.0375 57.679,5.0889 22.474,-10.554 -21.18,21.366 -9.8842,3.7424 l 23.806,-11.46 c -5.2487,13.99 -20.492,21.295 -35.064,23.261 -24.198,-1.3567 -34.12,-1.8744 -57.931,-6.1772 -8.0373,-2.9164 -15.984,-7.3906 -23.998,-9.564 l 21.675,-15.748 z"
         id="path866-1" />
      <path
         d="m -323.38,1432.6 c 3.327,8.7078 11.481,13.549 18.901,18.675 9.7774,5.9067 20.834,5.7185 31.861,5.7312 9.6668,0.7501 18.599,-0.8118 27.532,-4.1766 -35.251,21.209 -16.888,14.046 -13.85,0.1005 l 23.436,-12.118 c -0.52879,17.479 -13.851,19.772 -30.297,28.402 -9.2488,2.6202 -18.424,4.0398 -28.131,3.2709 -11.437,-0.165 -22.762,-0.5675 -32.671,-7.0503 -8.129,-5.6904 -16.502,-11.29 -20.653,-20.672 l 23.872,-12.163 z"
         id="path868-8" />
      <path
         d="m -274.89,1468.9 c 0.11191,7.9094 -1.2498,15.687 -1.9622,23.542 l -23.533,11.802 c 0.63504,-7.7368 2.2124,-15.402 1.6239,-23.181 l 23.872,-12.163 z"
         id="path870-1" />
      <path
         d="m -477.11,1096.4 c 13.764,9.7628 12.385,10.812 27.585,18.435 10.686,5.0255 20.506,11.579 31.11,16.791 6.1851,3.28 1.8132,5.2714 11.543,9.3213 l -14.099,14.164 c -5.5677,-3.9774 -11.085,-8.0697 -17.217,-11.161 -10.582,-5.2646 -20.577,-11.455 -31.125,-16.761 -14.66,-7.8263 -12.79,-10.038 -27.405,-17.096 l 19.608,-13.693 z"
         id="path872-6" />
      <path
         d="m -332.53,994.39 c 12.15,12.29 35.234,66.62 37.614,73.711 l -17.061,8.5895 c -2.2965,-6.8735 -23.837,-61.532 -37.315,-72.355 l 16.762,-9.9456 z"
         id="path874-1" />
      <path
         d="m -148.84,1004.2 c -5.0361,20.346 -14.512,53.758 -22.288,73.293 l -17.598,-8.9177 c 8.6834,-18.68 18.449,-51.752 22.076,-71.971 l 17.811,7.5956 z"
         id="path876-1" />
      <path
         d="m -71.218,1155.5 c 22.865,-13.489 53.42,-17.967 79.503,-25.331 l 2.8374,16.354 c -25.062,6.8988 -51.567,14.028 -75.394,22.926 l -6.9467,-13.949 z"
         id="path878-5" />
    </symbol>
    <symbol
       id="a-36">
      <path
         d="m 410.68,194.38 c -18.304,-4.9047 -36.828,0.70825 -49.616,12.902 -6.6812,-8.0308 -15.728,-14.229 -26.579,-17.136 -27.927,-7.4828 -56.696,9.1272 -64.179,37.054 -0.54987,2.0521 -0.69464,4.1156 -0.98953,6.168 -25.149,-2.6143 -49.213,13.13 -55.965,38.326 -6.6896,24.966 5.934,50.494 28.623,60.991 -1.2333,2.6744 -2.3833,5.4297 -3.1711,8.3695 -7.4829,27.927 9.1437,56.634 37.07,64.117 13.679,3.6657 27.502,1.5132 38.977,-4.8763 6.3242,13.529 18.115,24.419 33.659,28.583 22.177,5.9426 44.682,-3.471 56.832,-21.514 4.9215,3.4841 10.392,6.3662 16.554,8.0176 27.927,7.4828 56.634,-9.144 64.117,-37.071 3.7628,-14.043 1.4345,-28.254 -5.358,-39.901 6.7224,-6.4101 11.984,-14.53 14.563,-24.152 7.483,-27.927 -9.1436,-56.635 -37.07,-64.118 -2.9398,-0.78735 -5.8846,-1.2309 -8.8166,-1.5 1.7378,-24.524 -14.024,-47.662 -38.65,-54.261 z"
         fill="#ffffff"
         stroke="#000000"
         stroke-linejoin="round"
         stroke-width="14.79"
         id="path881-4" />
    </symbol>
  </defs>
  <sodipodi:namedview
     id="base"
     pagecolor="#ffffff"
     bordercolor="#666666"
     borderopacity="1.0"
     inkscape:pageopacity="0.0"
     inkscape:pageshadow="2"
     inkscape:zoom="0.19"
     inkscape:cx="1511.811"
     inkscape:cy="331.42857"
     inkscape:document-units="mm"
     inkscape:current-layer="layer1"
     inkscape:document-rotation="0"
     showgrid="false"
     showborder="true"
     inkscape:window-width="1366"
     inkscape:window-height="705"
     inkscape:window-x="-8"
     inkscape:window-y="-8"
     inkscape:window-maximized="1"
     viewbox-height="10"
     viewbox-width="10000000" />
  <metadata
     id="metadata853">
    <rdf:RDF>
      <cc:Work
         rdf:about="">
        <dc:format>image/svg+xml</dc:format>
        <dc:type
           rdf:resource="http://purl.org/dc/dcmitype/StillImage" />
        <dc:title />
      </cc:Work>
    </rdf:RDF>
  </metadata>
  <g
     inkscape:label="Layer 1"
     inkscape:groupmode="layer"
     id="layer1">
    <text
       xml:space="preserve"
       style="font-style:normal;font-weight:normal;font-size:77.611px;line-height:1.25;font-family:sans-serif;fill:#5bda39;fill-opacity:1;stroke:none;stroke-width:0.346549"
       x="108.31735"
       y="41.511349"
       id="text869-0"
       transform="scale(0.99605115,1.0039645)"><tspan
         sodipodi:role="line"
         id="tspan867-4"
         x="108.31735"
         y="41.511349"
         style="font-size:77.611px;fill:#5bda39;fill-opacity:1;stroke-width:0.346549">Découvrir</tspan></text>
    <g
       style="clip-rule:evenodd;fill:#4dda39;fill-opacity:1;fill-rule:evenodd;stroke-linejoin:round;stroke-miterlimit:1.41421"
       id="g934"
       transform="matrix(0.19240674,0,0,0.20196876,200.10095,-267.64522)">
      <g
         id="g912"
         transform="scale(1.33333)"
         style="fill:#4dda39;fill-opacity:1">
        <path
           d="m 1966.4076,1141.4044 c 70.9689,-65.9726 70.9674,-173.31879 0,-239.29141 -70.9675,-65.97269 -186.4445,-65.97269 -257.412,0 -60.206,55.96878 -69.3258,139.20871 -27.3783,204.21021 0,0 3.0144,4.6963 -1.0549,8.4791 -23.2136,21.5794 -92.8646,86.327 -92.8646,86.327 -18.4825,17.1813 -22.8856,41.2069 -6.4927,56.447 l 2.8222,2.6209 c 16.3914,15.2402 42.238,11.151 60.7219,-6.0316 0,0 69.5021,-64.6105 92.6695,-86.1456 4.263,-3.9642 9.3178,-1.1633 9.3178,-1.1633 69.9198,38.9917 159.4651,30.5166 219.6711,-25.4523 z m -223.8054,-31.2393 c -52.4388,-48.747 -52.4373,-128.0631 0,-176.81015 52.4373,-48.74566 137.7615,-48.747 190.1974,0 52.4402,48.74571 52.4402,128.06315 0,176.81015 -52.4373,48.7457 -137.7601,48.7457 -190.1989,0 z"
           style="fill:#4dda39;fill-opacity:1;fill-rule:nonzero;stroke-width:1.39328"
           id="path904-4" />
      </g>
    </g>
    <g
       id="g1045"
       transform="matrix(0.13965183,0,0,0.16204913,578.87773,-34.142119)">
      <path
         d="m 617.28585,347.72663 c 5.15695,-7.91051 4.63937,-18.23096 4.04091,-27.25359 -4.08449,-14.93763 -15.10366,-27.20501 -18.28572,-42.50425 -3.57967,-9.57682 -8.59175,-19.00375 -8.07532,-29.51656 0.17713,-11.85523 -0.55491,-23.78627 0.40375,-35.59387 2.99177,-12.20614 13.27246,-21.34932 24.9568,-25.83536 11.70178,-6.38333 25.58915,-7.14522 37.19602,-13.77895 9.81927,-3.56201 20.5304,-0.67798 30.737,-1.45409 10.1795,-0.12673 20.62917,-0.59492 30.19279,3.46713 11.17594,1.92624 20.35707,9.00739 27.10755,17.62147 5.7987,6.52525 11.3367,13.91794 10.30539,23.09418 0.29889,8.81191 0.5641,18.62756 -5.94637,25.60986 -6.24676,8.1858 -16.43807,13.23263 -20.19437,23.23512 -5.35236,13.82656 -18.95582,14.52449 -27.49393,26.20184 -5.09217,5.77158 -16.66273,14.48367 -15.34769,24.35395 0.94249,7.7859 2.29862,15.72888 -2.24671,22.76562 -3.33158,6.76309 -1.91534,18.75976 -12.03198,19.54615 -15.73309,1.07558 -32.04818,-0.11223 -46.37713,-7.05171 -2.83501,-1.37906 -6.10645,-1.52924 -8.94174,-2.908 z"
         fill="#ffff00"
         fill-rule="evenodd"
         stroke="#000000"
         stroke-width="1.21276"
         id="path894-9"
         style="fill:#5bda39;fill-opacity:1" />
      <path
         d="m 608.33812,349.7874 c 3.20289,-6.04649 3.90408,-13.65451 4.58794,-20.5328 -0.1225,-9.1599 -4.78404,-17.51649 -8.00018,-25.96952 -6.12696,-15.36726 -11.99132,-30.73843 -15.61883,-46.85808 -2.84187,-12.33445 -3.60077,-25.04314 -2.38149,-37.60312 3.19734,-13.75462 14.62817,-23.59574 26.01715,-31.45581 18.13465,-11.96603 36.09791,-18.92792 57.70221,-19.51409 25.94649,-0.24904 52.49045,1.79444 76.1632,12.8341 10.04683,5.29549 14.83057,14.87639 15.96454,25.60208 -0.60913,13.79935 -2.83239,28.10707 -10.21532,40.06146 -7.02726,10.02289 -15.20438,19.26911 -24.3419,27.50537 -6.49291,5.27128 -12.54329,10.95606 -18.56461,16.72524 -5.52154,6.69894 -11.29699,13.31721 -15.45226,20.908 -2.98771,6.34502 -2.68616,13.22875 -2.70301,20.03705 0.32726,6.50024 -0.0526,12.85159 -1.14044,19.24871 l -17.44712,8.45292 c 0.92895,-6.35941 1.75256,-12.60954 1.26188,-19.08249 -0.0118,-6.96829 -0.43542,-14.11137 2.41753,-20.66305 3.71971,-8.03464 9.79409,-14.59837 15.24311,-21.60497 5.90541,-5.94054 11.96516,-11.68706 18.50843,-16.9702 9.39105,-7.9628 17.57784,-17.2628 24.80962,-27.136 7.58078,-11.37015 10.0691,-25.42127 10.53101,-38.82401 -1.27079,-10.11524 -5.04927,-19.03875 -14.81411,-24.02443 -23.34446,-11.47126 -49.73059,-13.29484 -75.51826,-12.16143 -12.21984,0.57332 -55.01789,14.89584 -24.67889,1.85935 -11.35024,7.36938 -22.55234,16.66304 -26.43357,29.86068 -1.58522,12.36458 -0.82203,24.99941 1.70782,37.20846 4.03491,15.89607 8.88469,31.53163 15.65853,46.56354 3.34261,8.66601 8.44931,17.10727 8.67048,26.51874 -0.66823,7.29647 -1.93548,14.53034 -3.69365,21.64386 l -18.24213,7.37229 z"
         id="path896-8"
         style="fill:#0a1d23;fill-opacity:1;stroke-width:0.970213" />
      <path
         d="m 622.47632,340.61116 c 6.84859,2.44901 13.60268,5.49126 20.52748,7.89283 9.26719,3.60663 19.12239,3.51623 28.85352,4.39895 5.45957,1.42038 10.11946,0.42224 15.21114,-1.07771 l -15.23922,11.80855 c -5.31334,1.13052 -10.38866,1.38782 -15.78442,0.16277 -9.85025,-0.68534 -19.65402,-1.18638 -29.03363,-4.62689 -6.77985,-2.46786 -13.42353,-6.08615 -20.52363,-7.22463 l 15.98876,-11.3342 z"
         id="path898-2"
         style="stroke-width:0.970213" />
      <path
         d="m 614.16771,352.25644 c 2.02486,5.97553 8.21332,8.97656 13.77795,11.68802 9.37371,2.34753 19.02846,3.85577 28.71117,4.3419 8.49019,0.23126 17.13336,-0.54931 25.40032,-2.43986 1.63635,-0.12642 3.13848,-0.81262 4.7212,-1.22228 l -15.47358,11.6025 c -1.59936,0.3628 -3.14216,0.97721 -4.80193,1.08938 -8.36478,1.51943 -16.89224,2.45833 -25.42261,1.90844 -9.8638,-0.57653 -19.88642,-1.99466 -29.31253,-4.84737 -6.13666,-3.23811 -12.6043,-6.76523 -15.20921,-13.36774 l 17.60882,-8.75397 z"
         id="path900-6"
         style="stroke-width:0.970213" />
      <path
         d="m 616.51115,374.04998 c 5.74176,2.60687 11.5052,5.54696 17.49553,7.81351 17.37835,3.29149 24.798,3.62539 42.54626,3.66252 16.57751,-7.59547 -15.62269,15.377 -7.29094,2.69347 l 17.56041,-8.24771 c -3.87153,10.06858 -15.11625,15.32644 -25.86515,16.74078 -17.84898,-0.97642 -25.1679,-1.34901 -42.73219,-4.4457 -5.92884,-2.09897 -11.79085,-5.31911 -17.70179,-6.88324 l 15.98874,-11.33421 z"
         id="path902-3"
         style="stroke-width:0.970213" />
      <path
         d="m 621.61446,388.6017 c 2.45405,6.26705 8.46848,9.75072 13.94257,13.44065 7.21223,4.25111 15.36803,4.11561 23.50233,4.12485 7.13068,0.53983 13.71986,-0.58432 20.30961,-3.00601 -26.00266,15.26424 -12.45808,10.10843 -10.21727,0.0723 l 17.28732,-8.72121 c -0.39008,12.58039 -10.21724,14.22996 -22.348,20.44142 -6.82257,1.88579 -13.59011,2.90743 -20.75119,2.35403 -8.43663,-0.11866 -16.79055,-0.40843 -24.09981,-5.07414 -5.99623,-4.09529 -12.1724,-8.12554 -15.23438,-14.87736 l 17.60882,-8.75378 z"
         id="path904-3"
         style="stroke-width:0.970213" />
      <path
         d="m 657.38601,414.77924 c 0.0824,5.69238 -0.92179,11.29046 -1.44731,16.94298 l -17.35899,8.49414 c 0.46834,-5.56815 1.6319,-11.08535 1.19758,-16.68344 l 17.60882,-8.75407 z"
         id="path906-3"
         style="stroke-width:0.970213" />
      <path
         d="m 508.20875,146.67574 c 10.15335,7.02635 9.13579,7.78114 20.34834,13.26764 7.88225,3.61684 15.12691,8.33336 22.94842,12.08463 4.56218,2.36064 1.33721,3.79375 8.51468,6.70856 l -10.40029,10.19398 c -4.10734,-2.86251 -8.177,-5.80775 -12.70016,-8.03251 -7.80592,-3.78898 -15.17919,-8.24383 -22.95906,-12.06227 -10.81378,-5.63269 -9.43425,-7.22453 -20.21567,-12.30431 l 14.46356,-9.85473 z"
         id="path908-0"
         style="stroke-width:0.970213" />
      <path
         d="m 614.86493,73.23964 c 8.96255,8.845152 25.99006,47.94679 27.74571,53.0501 l -12.58492,6.1818 c -1.69417,-4.9469 -17.58365,-44.285038 -27.5259,-52.074141 l 12.36414,-7.157856 z"
         id="path910-7"
         style="stroke-width:0.970213" />
      <path
         d="m 750.35914,80.279283 c -3.71477,14.643098 -10.70436,38.689877 -16.44097,52.748767 l -12.981,-6.41811 c 6.40519,-13.44357 13.60849,-37.245405 16.2841,-51.798093 l 13.13787,5.466665 z"
         id="path912-1"
         style="stroke-width:0.970213" />
      <path
         d="m 807.6188,189.19359 c 16.86706,-9.70775 39.40488,-12.93033 58.6454,-18.23096 l 2.09284,11.77067 c -18.48617,4.96508 -38.03851,10.0958 -55.61344,16.49972 l -5.12413,-10.03943 z"
         id="path914-3"
         style="stroke-width:0.970213" />
    </g>
    <path
       id="path1013"
       style="fill:#4dda39;fill-opacity:1;stroke:none;stroke-width:7.85566;stroke-linecap:round;stroke-linejoin:round;stroke-opacity:1;paint-order:stroke fill markers"
       d="m 51.855245,-22.981326 c -0.49045,1.1e-4 -0.98158,0.0104 -1.47277,0.0305 -15.7031,0.25486 -30.58748,10.7358 -36.12028,25.4341002 -5.9022903,14.5820698 -2.0338,32.4096998 9.38134,43.2340498 11.14517,11.10203 29.07556,14.46141 43.48365,8.14576 14.53473,-5.94926 24.58746,-21.12633 24.39489,-36.83031 0.004,-5.69906 -1.2321,-11.3939298 -3.59771,-16.57882985 C 81.779275,-13.492016 67.059365,-22.984906 51.855245,-22.981316 Z m -13.78675,15.7106702 37.56956,21.2474098 c 3.11052,1.75395 4.70599,4.08398 3.56867,6.90506 -0.77455,1.20539 -2.67605,2.49845 -4.01269,3.3942 l -38.4064,22.42873 c -3.27197,1.16691 -5.12408,0.1551 -5.94756,-1.50268 -0.84651,-1.70414 -0.43406,-3.87772 2.66384,-5.65387 l 36.24843,-20.78322 -35.52909,-20.0344398 c -3.11053,-1.75395 -3.33765,-3.3877 -2.27244,-5.57224 1.79825,-2.24679 3.83192,-1.69265 6.11768,-0.42895 z"
       sodipodi:nodetypes="sccccccscccccsccccc" />
  </g>
</svg>
